/* XPM */
static char *xpm_[] = {
/* columns rows colors chars-per-pixel */
"50 50 108 2 ",
"   c black",
".  c #000700",
"X  c #000601",
"o  c #000A03",
"O  c #000B03",
"+  c #000D01",
"@  c #000D05",
"#  c #050F04",
"$  c #0F0806",
"%  c #0F0D06",
"&  c #1B0F0B",
"*  c #001000",
"=  c #001600",
"-  c #001206",
";  c #041006",
":  c #071206",
">  c #081306",
",  c #091406",
"<  c #0A1507",
"1  c #001B00",
"2  c #001C00",
"3  c #051409",
"4  c #0F1B09",
"5  c #0D190A",
"6  c #151008",
"7  c #1B130A",
"8  c #1B130B",
"9  c #101D09",
"0  c #101C0C",
"q  c #25140E",
"w  c #25170E",
"e  c #2C1B11",
"r  c #331C13",
"t  c #331D13",
"y  c #381F15",
"u  c #002100",
"i  c #032100",
"p  c #052700",
"a  c #062900",
"s  c #13210B",
"d  c #17260E",
"f  c #192A0F",
"g  c #132111",
"h  c #1B2B11",
"j  c #182D10",
"k  c #382015",
"l  c #3C2117",
"z  c #3F2318",
"x  c #283C17",
"c  c #25351A",
"v  c #44251A",
"b  c #44261A",
"n  c #47271B",
"m  c #48271B",
"M  c #4C271D",
"N  c #4B281C",
"B  c #4B291C",
"V  c #4C291D",
"C  c #4C2A1D",
"Z  c #2F471A",
"A  c #2F481B",
"S  c #314A1A",
"D  c #304B1D",
"F  c #33501D",
"G  c #335020",
"H  c #385421",
"J  c #3B5B25",
"K  c #405E25",
"L  c #7F4835",
"P  c #426227",
"I  c #5A793E",
"U  c #5C7B3E",
"Y  c #677A54",
"T  c #874B35",
"R  c #894B34",
"E  c #8A4D35",
"W  c #894D37",
"Q  c #8A4D36",
"!  c #8D4D35",
"~  c #8B4F38",
"^  c #8A523A",
"/  c #8D513A",
"(  c #93563E",
")  c #9F5738",
"_  c #A15839",
"`  c #A45C3C",
"'  c #975C43",
"]  c #9E644A",
"[  c #9F654B",
"{  c #B27E5E",
"}  c #5A8144",
"|  c #6D8D4B",
" . c #6D8E4D",
".. c #72885C",
"X. c #739452",
"o. c #749552",
"O. c #789855",
"+. c #CD986D",
"@. c #DDA676",
"#. c #ECAC77",
"$. c #EFAF7A",
"%. c #F3B27B",
"&. c #F3B27C",
"*. c #F4B37C",
"=. c #F4B47C",
"-. c #F4C18B",
";. c #F4D9A4",
":. c #F4E5B1",
/* pixels */
"+           1                                               X + X X   O X X + X X X X X O X X   O + ",
"+                     u                                 O   O X O X X X   X   X O X X O X X X X X X ",
":                       +           +                 X   5   X   X X X X X X X   X X X X X < X X X ",
"-                                             O.  O X     O X X X f O O O X X O O X + X O X X + X O ",
"+                                           +         X O X   + < X O O X X X   X X < X X O @ X X h ",
"O                                               +       + X > : O d h h X O X O X X X < X d F X O X ",
"O O                         p                 X X O   X O O X X O X O X X O X X + O < X X + < O X O ",
"O O O J                             u       a   1   O X X X X O X O X X X X O X X X X O f   5 X O X ",
"O X X O                           2 2     :.:.:.:.:.:.:.:.:.X O O X O X O X X X X O + X X   X O   X ",
"O O O O                         X   :.:.:.R R R R R R R R R :.:.:.h X X X X O X X X X X O X X X X O ",
"O O O                       u   :.:.:.:.:.Q Q / / / / / Q R :.:.:.:.:.O X X X X X X X X   X X X X X ",
"O O O               +       :.:.R R R R R / Q Q Q Q ~ Q T / R R R R R :.:.O O X O   O X   X   O   + ",
"O O X +               X   :.Q / ~ ' ( R R Q Q Q R R Q Q Q Q R R ( ' Q Q Q :.X X X X + X X O X X O X ",
"@ O O                     :.:./ ~ R ' R R R R R R R R R R R R R ' R Q ! :.:.X O X X X     X X X X X ",
"O X O X                       :.R R R / R R R R R R R R R R R / R R R :.O X X : > O O X X X X X X X ",
"# O X                           :.R Q ] R R R R R R R R R R Q ] R R :.O X X X < f O X X O X X O O X ",
"+ X O X                           :.R ] R R R R R R R R R R R [ R :.X X X O X O + O X + X O X X O O ",
"O X      .                        :.R Q R R R ! R _ _ R R R R R R :.X O X X X P < X X O + X > X X X ",
"O X X O         +             O :.R { R R _ _ _ _ _ _ _ _ _ R R { R :.  O X O O O X X X + < + X X O ",
"O   O                       D X :.R { R R _ _ _ _ _ _ _ _ _ R R R R :.X X   X < O + X O X O X O < X ",
"O +   X                   + X O :.R R R R _ _ _ _ _ _ _ _ _ _ R R R R :.X O X O X O X O X O O X O < ",
"0 X O                         :.R R R R _ _ _ _ _ _ _ _ _ _ _ _ ( ] R :.X X X X X 9 X > X X O X h O ",
"@ O X O           X           :.R ] ( _ _ _ _ _ R R R _ _ _ _ _ R R R :.X X X O X X O X   X + X + X ",
"O O O f X O                   :.R R R _ _ _ _ R R R *.%._ _ _ _ _ R :.X O O   X X   X X X O X < O O ",
"O X X X O O                     :.R _ _ _ _ R R *.*.*.*.*._ _ _ _ R R :.X O X X X X X X X # X < f d ",
"O + O O     =                 :.R R _ _ _ R R *.*.*.*.*.*._ _ _ _ R R :.X X O X X O X X   + X X   X ",
"O O O O O                     :.R R _ _ _ R R *.*.*.*.*._ *.*.*._ R R :.  O X X   X X O X O X X h O ",
"O O O O O O             a     :.R R _ _ *.R _ *.=.*.*._ _ *.*.*.*._ R :.X X X > < + X X X < f x X 9 ",
"O O O O * O         J         :.R _ _ *.*.*._ *.*.*._ _ *.*.*.*.*._ R :.O O + X X X X O X X # > X   ",
"O O O O = *                   :.R _ _ *.*.*.*.L *.*._ *.*.*.*.*.*.! :.:.X X X + X + X X X O X O O # ",
"O O O O X                     :.:.) *.*.*.*.&.) _ _ ` -.*.*.*.*.*.~ :.7 X X O X X X X f h X 9 O d   ",
"O O O O O                       :.R *.*.*.=.=.&.Q Q ;.Q *.*.*.*.=.Q :.V t % X   X O O X X X X X O X ",
"O O O O                         :.W &.=.&.&.&.&.Q ~ :.W $.&.&.&.=.Q :.m b % + O X X O f < X # X + X ",
"O O O O +                       :.W &.&.&.=.&.W @.:.m :.Q W &.=.&./ :.V b e X X X O X X O + O X U X ",
"O O O X                         :.Q =.=.=.%.Q ~ :.V N :.T Q &.=.*.~ :.m m y O O X X O < X O X     X ",
"O O O X                         :.~ +.$.&.$.Q :.V V V N :./ Q &.~ :.V V b 8 X X O O X X O d X X X O ",
"O O @ X   F                 i u :.~ $.&.=.! :.V V V V V V :./ Q :.:.V V 6 X 0 d < O f X H d X X X   ",
"# O   O                       8 :.~ &.=.&.Q :.V V V V V V V :.:.:.M V e   X # > 0 # + > K   X O   : ",
"+ O X                         q N :.~ &.Q ~ V V V V V V V V V b V m q X X X X d X d 9 X X O   X     ",
"g u + F         1         =   q m :.W W W :.V V V V V V V V V V b 7   O O     +   O X   X   X   X   ",
"3 X X 2     o.    |           q V V :.:.:.V V V V V V V V N M b % O X   X O     X   X   X   s       ",
"O X O                         $ l y z V V V V V V N V N N b 7 X X X   X   X X O   O O X X O c   O   ",
"..x O   u         =             $ } t t b b b V N n n n t X X X X X X O X     X   O       O X       ",
":   O               S     =         & 7 q e y k k e q q % X X O O X O           X   X X X X     2 D ",
"Y 0 O X                     2   *   *     X X O O X O X O X X X   X   O           O s   X   S       ",
"O X                                             X X X     X X   X X X Z             X               ",
"O                 =                               X   * X   O X   X               X               X ",
"@ X                         =   2 Z   2              .      O   +                           D       ",
"O O               *   A             =  .      I      .        I =     1               S         X.  ",
"@ O                   O.            A          .      o.    S 2                 S                   "
};
