/* XPM */
static char *xpm_[] = {
/* columns rows colors chars-per-pixel */
"50 50 123 2 ",
"   c black",
".  c #000700",
"X  c #000A03",
"o  c #000B03",
"O  c #000D01",
"+  c #000D05",
"@  c #050F04",
"#  c #0F0806",
"$  c #0F0D06",
"%  c #1B0F0A",
"&  c #1B0F0B",
"*  c #001000",
"=  c #001600",
"-  c #001206",
";  c #041006",
":  c #071206",
">  c #081306",
",  c #091406",
"<  c #0A1507",
"1  c #001B00",
"2  c #001C00",
"3  c #051409",
"4  c #0F1B09",
"5  c #0D190A",
"6  c #151008",
"7  c #1B140A",
"8  c #101D09",
"9  c #101C0C",
"0  c #25140E",
"q  c #25150E",
"w  c #2C1A11",
"e  c #331C13",
"r  c #331D13",
"t  c #381F15",
"y  c #002100",
"u  c #032100",
"i  c #052700",
"p  c #062900",
"a  c #13210B",
"s  c #17260E",
"d  c #192A0F",
"f  c #132111",
"g  c #1B2B11",
"h  c #182D10",
"j  c #382015",
"k  c #3C2117",
"l  c #3F2318",
"z  c #283C17",
"x  c #25351A",
"c  c #422419",
"v  c #44251A",
"b  c #47271B",
"n  c #48271B",
"m  c #49281C",
"M  c #4B281C",
"N  c #4C291D",
"B  c #4C2A1D",
"V  c #5C3A29",
"C  c #663828",
"Z  c #6E3E2C",
"A  c #703D28",
"S  c #2F471A",
"D  c #2F481B",
"F  c #314A1A",
"G  c #304B1D",
"H  c #33501D",
"J  c #335020",
"K  c #385421",
"L  c #395823",
"P  c #3B5B25",
"I  c #405E25",
"U  c #7F4835",
"Y  c #426227",
"T  c #5A793E",
"R  c #5C7B3E",
"E  c #677A54",
"W  c #844A34",
"Q  c #874B35",
"!  c #894B34",
"~  c #8A4D35",
"^  c #884D36",
"/  c #8A4D36",
"(  c #8D4D35",
")  c #8B4F38",
"_  c #8C4F38",
"`  c #8A523A",
"'  c #8D513A",
"]  c #915235",
"[  c #93563E",
"{  c #A15839",
"}  c #975C43",
"|  c #9E644A",
" . c #9F654B",
".. c #997054",
"X. c #B27E5E",
"o. c #5A8144",
"O. c #6D8D4B",
"+. c #6D8E4D",
"@. c #72885C",
"#. c #739452",
"$. c #749552",
"%. c #789855",
"&. c #9C8263",
"*. c #CB9165",
"=. c #CB9265",
"-. c #CE9266",
";. c #C2966A",
":. c #D7A172",
">. c #DDA471",
",. c #E0A271",
"<. c #ECAD78",
"1. c #EDAE78",
"2. c #EEAF79",
"3. c #F0B07A",
"4. c #F2B27B",
"5. c #F3B27C",
"6. c #F5B37C",
"7. c #F4B47C",
"8. c #D6C497",
"9. c #DCCA9B",
"0. c #E7CB98",
"q. c #EBDDAB",
"w. c #F4E5B1",
/* pixels */
"O           1                                               . O . . . . . . o . .   . . . . . .   + ",
"O                     y                                 .   . . . .   . . . . . . . . o . . . . . . ",
":                       O           O                 .   5   .   . . .   . . . .   . . . . < . . . ",
"-                                             %.  . .     . . . . g . o . . . . . . o . . . . . . . ",
"O                                           O         . o .   O > . o . . . . . . . > . . . o . . g ",
"o                                               O       O . , @ o s g g .   . . . . . > . s K . o . ",
"o o                         i                 . . .   . o o . . o . o . . . . . o . , . . O , . . o ",
"o o o P                             y       p   2   . . . . . . . o . . . . o . . . o o d   8 . . . ",
"o . . o                           2 2     w.w.w.w.w.w.w.w.w.. . X . X . . . . . . . X . .   . .   . ",
"o o o o                         .   w.w.w.! ! / ! ! ! ! ! ! w.w.w.g . . X . . . . . o . . . . . . o ",
"o o o                       y   w.w.w.w.w.! / ' ' ' ' ' ) ! w.w.w.w.w.. o . . . . . . .   . . . . . ",
"o o o               O       w.w.! ! ! ! ! ` / / / / ) / Q ` ! ! ! ! ! w.w.. o   .   . .   .   .   o ",
"o o . o               .   w.) ) _ } ' / ! / / / ! ! / / / / ! ! ' } _ _ _ w.. . . . o . . . . . . . ",
"+ o o                     w.w.) _ ! } ! ! ! ! ! ! ! ! ! ! ! ! ! } ! _ _ w.w.. . . . .     . . . . . ",
"o . . .                       w.! ! ! ] ! ! ! ! ! ! ! ! ! ! ! ' ! ! ! w.. . . > > o . . . . . . . . ",
"@ o .                           w.! !  .! ! ! ! ! ! ! ! ! ! !  .! ! w.. . . . , d o . . . . . . . . ",
"o . o .                           w.!  .! ! ! ! ! ! ! ! ! ! ! | ! w.. . . o . X O o . O . . . . o . ",
"o .     +.                        w.! ! ! ! ! ( ! { { ! ! ! ! ! ! w.. . . . . Y < o . . O . > . . . ",
"o . . .         O             . w.! X.! ! { { { { { { { { { ! ! X.! w.  . . o . o . . . o , o . . o ",
"o   o                       J . w.! X.! ! { { { { { { { { { ! ! ! ! w.. .   . , o o . o . o . o , . ",
"o o   .                   o . . w.! ! ! ! { { { { { { { { { { ! ! ! ! w.. . o X . . . . . . o . + , ",
"9 . o                         w.! ! ! ( { { { { { { { { { { { { [ | ! w.. . . . . 8 o > . . . . g o ",
"+ o . .           .           w.!  .} { { { { { ! ! ! { { { { { ! ! ! w.. . . . . . .   . . o . o . ",
"o o o h . .                 . w.! ! Q [ { { { ! ! ! 6.6.{ { { { { ! w.. o .   . . . . . . . . > o o ",
"o . . . . o                     w.! { { { { / / 6.6.4.6.6.{ { { { ! ! w.. . . . . . . . . @ . > d s ",
"o o o o     =                 w.! ~ { { { ! ! 6.6.3.6.6.4.{ { { { ! ! w.. . . . . . . .   o . .   . ",
"o o o o o                     w.! ! { { { ! / 3.6.6.6.6.{ 7.6.6.{ ! ! w..   . .   . . . . . . . g . ",
"o o o o o o             p     w.! ! { { 3.! { 7.6.6.6.{ { 6.6.4.5.{ ! w.. . . , < o . . o , g z . 8 ",
"o o o o * o         L         w.! { { 6.6.6.{ 6.5.6.{ { 4.4.6.7.6.5.! w.o . O . . . . . . . @ > .   ",
"o o o o = *                   w.! { 6.6.6.3.6.U 6.6.{ 5.6.7.6.6.6.7.) w.. . . O . o . . . . . . o @ ",
"o o o o .                     w.q.A 3.6.7.7.6.{ [ { ] >.4.<.<.7.<.<._ w.. . . . . . . d g . 8 . s   ",
"o o o o .                       w.A 6.6.6.6.6.;.( / V <.6.4.4.=.<.<._ w.e $ .   . o . . . . . . o . ",
"o o o o                         w./ 6.5.5.7.7.` 0.Z C 5.6.6.-.6.6.<.! w.c $ O . . . . g < . @ . o . ",
"o o o O O                       w.Q 5.5.6.5.<.Q w...:.) 6.6.-.6.6.<.! w.n w . . . o . . X O . . R . ",
"X o o .                         w./ 4.7.7./ / w.N &.w.) ( 6.,.6.<.! w.w.n k o O . . . > . . .     . ",
"X o o .                         w.` 7.7.5.) ) w.N m m w.! -.6.6.6.! w.n c 7 . o o o . . X s . . . . ",
"X X + .   H                 y y B w./ 7.` / w.B N N N } 8.U 7.7.6.! w.N 6 . 5 s , o d . K s o . .   ",
"@ +   o                       & B w.w.) / w.B N N N N 8.9.U 7.<.6./ w.w   . @ > 8 @ o > I   . .   : ",
"O o .                         0 B B w.w.w.m N N N N N 8.8./ 4.<.4./ w.. . .   s . s 8 . . .   .     ",
"f y O H         1         =   0 B B B N N N N N N N N N N ` Q 0./ w.  . . .   X   X .   .   .   .   ",
"3 . . 2     $.    O.          0 N N N N N N N N N N N N N w.! ) / w..   . .     .   .   .   a       ",
"o . .                         # l t l N N N N N N N N N m v w.w.w..   .   . . .   X . . . . x   o   ",
"@.z o   y         =             # o.e e c c N b b b b b e . . . . . o . .     .   .       . .       ",
":   o               F     =         % % 0 w j j j w 0 0 $ . . . . . X           .   . . . .     2 F ",
"E 9 o .                     2   *   =       . . o .   . . . . . . .   o           . a   .   F       ",
"o .                                             . . . .   . .   .   . S             o               ",
"o                 =                               .   * .   . . .                 .               . ",
"+ .                         =   2 D   2             +.      O   o                           F       ",
"o o               *   D             = +.      T     +.        T =     1               F         #.  ",
"X o                   %.            D         +.      $.    F 2                 F                   "
};
