/* XPM */
static char *xpm_[] = {
/* columns rows colors chars-per-pixel */
"50 50 73 1 ",
"  c #000100",
". c #020201",
"X c #020302",
"o c #010402",
"O c #010703",
"+ c #050703",
"@ c #040802",
"# c #000C00",
"$ c #030C00",
"% c #040E00",
"& c #020904",
"* c #030A04",
"= c #040804",
"- c #030D05",
"; c #040C05",
": c #050E06",
"> c #080A06",
", c #0A060A",
"< c #0A070B",
"1 c #0A080A",
"2 c #0B0B0A",
"3 c #0C080C",
"4 c #0C090C",
"5 c #0B0C0C",
"6 c #0C0E0D",
"7 c #100E0D",
"8 c #051002",
"9 c #031400",
"0 c #031601",
"q c #0A1006",
"w c #041C00",
"e c #051F00",
"r c #0C1208",
"t c #0C170A",
"y c #12170C",
"u c #13180E",
"i c #121D0C",
"p c #141410",
"a c #191915",
"s c #052000",
"d c #0D2B04",
"f c #18240F",
"g c #14280D",
"h c #192510",
"j c #25321A",
"k c #29292D",
"l c #292A2D",
"z c #292B2E",
"x c #2A2F2F",
"c c #2E3824",
"v c #303D22",
"b c #323232",
"n c gray20",
"m c #333433",
"M c #343433",
"N c #333634",
"B c #343534",
"V c #343735",
"C c #353C33",
"Z c #343935",
"A c #363D37",
"S c #393B38",
"D c #3B5524",
"F c #374135",
"G c #394637",
"H c #394139",
"J c #3C5435",
"K c #3D5536",
"L c #42463E",
"P c #44632A",
"I c #59644E",
"U c #799855",
"Y c #93AC76",
/* pixels */
"  y   #                          U    v          ;",
"    U                                             ",
"               d            o                 = 1 ",
"       v               u            &   o ; &  o#&",
"                                            =&  &r",
"                            =           &  =  D&  ",
"              %                       &    &&& &  ",
"-;;h                  o o   U        o   &    i  o",
"- &-    U        o U,,,,3,116,,,;oo       oXo     ",
"oooo                ,,,,,,53,6,, = oou         & 8",
"- o           o  %  ,,,,3,,7,,,1Xoo&o&     &   &  ",
"oo-      d        ,,knnnBMMBNNmBp1&&oo  &  &     o",
"o-&&     U o    y 1,knnnnmnmmNnZ5<&  r& &&&&  X   ",
" oo             ,1kknNnnmNmmmmBHBn6h& &        X X",
"-o#&            ,,kkmmnNmmnnNBZFZN5o o=t       o  ",
"&o=             ,,nMnBmBmnmZZBZZZNt o& t o      &&",
" o-o            ,,MnnnnnNnNNnnZNZN<&  o           ",
"o&  u        ,,,kknnnNnNNnZSNNNBZnF,,5 P    o   & ",
" &           ,,,kknmn NNNNNnZZN NAB<5,o           ",
"o            ,35kknNn  InZNnNZo nZN,,,&&          ",
";  #         ,,,kkNNB   ZnZZN & nNn<<5  &        o",
"             ,,,xkCNZNnnZNBBBZNNNNZ<55o& = =  o  3",
" o           ,,,zkNnnnnnBZNnZnnBnLn<,,  &&&&  : o ",
"             ,,,kzNnNnn nM NB Nnnnn<35   o #&XXtoo",
"             ,,,kknnNB n  n  n nnnn,5,o o#&=&r &rq",
" U &  #      ,,,kknnnnnnnnNBnnFBnnn,,, & &&o     o",
" ;o;&        ,,,kknnnnnnnnnnnnnnnnn<,,#o      o   ",
"==&&&;&     d,,,kknnnnnnnmnnnnnnnNn,,, =&        i",
"-;--;;&   f  ,,,kkKNnnnnnGnnBNnnnIn,<<         + o",
"#&--#&&&     ,,,kknmnnnnnnnNnnnnnNn<<6          # ",
"&o-&&;&&     ,,,kknnnZmnnnnnnnNnnnN5,<   8        ",
"&;;;o;  U    ,,,kknnnnnnnnnnnnnNnNn3,,X &         ",
";;-&;&o      ,,,kknnnnnnnnnnnnnnnBm1,,            ",
"  &-         ,,,kknnnYnnnnnnnnnnKNm5,,      =   j ",
"&& #         3,,kkkknkkknnnnknNmkmm,1, o          ",
"-&           ,,,kkkknkkknnnnknnNzmm,,a            ",
"d    =       ,,,kk,,k,1,kkkk1kkk1zz11,     v      ",
"o            7,,kk,,k,,,kkkk,kkk1kk,,,            ",
" -      >       ,,  , v ,,1, ,,c 15o              ",
"=8              g,  ,   ,,,,#,55 5, o             ",
"         +                               y        ",
"                  U       o    o ooo              ",
"                 >         #                  U   ",
"          o;&;;o      =      >      9o            ",
"o#; U     o-; = =    0% o      o # oo            o",
" &;-o    ; --#&&& #o0 = o  #  o  o  o           # ",
"-;=&     &; -;&&#o#s# 9#&#;; o   d             sos",
"# =% - U ; && =;o% %  o ;o=;-o   o  o    o    o  o",
"-&=;-o#  &;%& =& e#=   % &&-&&#    %      o #    %",
"&=  #&   =o &&#o o     ;;&%-&-          o   U %s9o"
};
