/* XPM */
static char *xpm_[] = {
/* columns rows colors chars-per-pixel */
"50 50 62 1 ",
"  c #000100",
". c #020302",
"X c #070200",
"o c #010402",
"O c #030703",
"+ c #050703",
"@ c #030B03",
"# c #000C00",
"$ c #020D00",
"% c #040E00",
"& c #020904",
"* c #030A04",
"= c #040804",
"- c #030D05",
"; c #040C05",
": c #060E06",
"> c #080A05",
", c #080A06",
"< c #051102",
"1 c #031400",
"2 c #031601",
"3 c #081107",
"4 c #0B1107",
"5 c #041C00",
"6 c #051F00",
"7 c #0C1208",
"8 c #0C1609",
"9 c #0C170A",
"0 c #12170C",
"q c #13180E",
"w c #121D0C",
"e c #052000",
"r c #0D2B04",
"t c #18240F",
"y c #192510",
"u c #192710",
"i c #25321A",
"p c #281A28",
"a c #291A28",
"s c #281B28",
"d c #291B29",
"f c #291D28",
"g c #291C29",
"h c #2C1E2B",
"j c #2B2229",
"k c #31262F",
"l c #303D22",
"z c #3B5524",
"x c #44632A",
"c c #799855",
"v c #A1A4B4",
"b c #A1A5B4",
"n c #A1A6B5",
"m c #C6C6C8",
"M c #C6C7C8",
"N c gray80",
"B c #CDCECD",
"V c #CED1CD",
"C c #CFD5CD",
"Z c #D0D1CF",
"A c #D6D8D3",
"S c #DFE5D9",
/* pixels */
"  0   #                          c    l          3",
"    c                                             ",
"               r            o                 oo> ",
"       l               q            o   X ; =   &o",
"                                            =&  &9",
"                            +           &  =  z&  ",
"              %                       &    ==&+&  ",
"-;;y                  o o   c        o   &    w   ",
"- &-    c          cpsssgdssdsss&o        +o&     ",
"oooo                pssdddsasdss & ooq         =o;",
"- o           o  %  ppgdaaadssss@o &o&     &   o o",
"oo-      r        ppvmMMNNNNNNNNgg&-oo  o  =      ",
"o-&&     c o    q ddnMMMNNNNNNNNaa@  7& &=&&      ",
" oo             ddvvMNNNNNNNNNNNNNgy&       .  += ",
"-o#&            ssvvMNNNNNNNNNNNVNdooo&9          ",
"&o=             ssmmNNNVNNNNVNNNNNgo &&9 =      &+",
" #&o            ppmmNNNNNNNVNNVNNNg@  o           ",
"o&  0        ddpvvNNNNNNNNNVNNNNNNNdpg x        = ",
" +           dppvvNNN NNNNNNVNV NVNasso +         ",
"+            ddsvvNNN  ANNNNNV  NNNdss&&          ",
"&  &         ddpvvNNV   NNNNN o NNNddg & +        ",
"             dssvvNNNNNNNNNNNNNNNNNgsg o .o&  +  4",
"             dppvvNNNNNVZVNNNVNNNNNsss X&&&o  : = ",
"             pppvvNNNNN NN NN NNNNNsss   o &oo&9 o",
"             dppnnNNNNXN  N  NXNNNNpppo o&&&o7 &74",
" c &  #      dppvnNNNNVNNNNNNNNNNNNppp = && X     ",
" ; ;&        dspvvNNNNNNNNNNNNNNNNNppp&o   o  +   ",
"&&&&&;&     rdspvvNNNNNNNNNNNNNNNNNspp =o        w",
"----;#=   t  pppvvVNNNNNNZNNNNNNNANspg  o        @",
"#--;&;-=     pppvvNNNNNNNNNNNNNNNNNpsg  o       oo",
"&X-o&&&&     dspvvNNNNNNNNNNNNNNNNNpsp   <        ",
"&---&;  c    dadvnMMNMMMNNNNMNNNMNNspp=           ",
"-&;&-&&      ddsvvMmNmmmNNNNmNNNmNNsss            ",
"  &-         gssvvMmNSmmNNNNmNNNNNNssa      o   i ",
"o- &         pssvvvvNvvvNNNNvNNNnNNsdd o          ",
"<o           pppvvvvNvvvNNNNvNNNnNNsgh            ",
"r    =       dddvvppnpdgvvvvpvvvsvnass     l      ",
" &           dssvvppvpdgvvvvpvvvsvvdss            ",
" ;      >       dp  p l pppp ssk ss               ",
"&%              jd  d   pppp@ssd ds               ",
"                                         q        ",
"                  c       o    o oo               ",
"                 >         #                  c   ",
"          o;=;;o      =      >   o  2o            ",
"&&< c     &;; =      2# o      o # oo            o",
" +&&o    ; ;-#&&% %o2 % o  #     o  o           # ",
";;#&     && -;;&;o#e  2%;#;= @   r             eoe",
"- -; ; c ; #& &;o% #  o &o&;=#   o  o    o    o  o",
"&&=;-o#o +&;# =& 5#+   % -&;@&&    #      o #   o%",
"#@  o;   #o ;&#o o     =;&#;&-       o  o   c %e2o"
};
