/* XPM */
static char *_cd4461eceac4b74bbe11b881dc5a149DgVS7RqZcTfzIiwN[] = {
/* columns rows colors chars-per-pixel */
"50 50 56 1 ",
"  c #000100",
". c #050200",
"X c #010401",
"o c #050703",
"O c #020803",
"+ c #040802",
"@ c #000C00",
"# c #040E00",
"$ c #030B04",
"% c #050904",
"& c #030D05",
"* c #060E06",
"= c #080A05",
"- c #041001",
"; c #031400",
": c #0A1006",
"> c #041C00",
", c #0C1208",
"< c #0A1509",
"1 c #0C1609",
"2 c #12170C",
"3 c #13180E",
"4 c #121D0C",
"5 c #1E131E",
"6 c #1E141E",
"7 c #201A1F",
"8 c #052100",
"9 c #0D2B04",
"0 c #18240F",
"q c #192510",
"w c #25321A",
"e c #1F1720",
"r c #211720",
"t c #231A21",
"y c #261D24",
"u c #232420",
"i c #302C2B",
"p c #303D22",
"a c #3B5524",
"s c #44632A",
"d c #799855",
"f c #797B87",
"g c #797C87",
"h c #7A7E88",
"j c #959696",
"k c #999A99",
"l c #999C9A",
"z c #9C9D9B",
"x c #9BA09A",
"c c #9CA39B",
"v c #9AA698",
"b c #9CA09C",
"n c #9EAA9B",
"m c #A1A39F",
"M c #ACB1A7",
"N c #C5D2B8",
/* pixels */
"  3   @                          d    p          *",
"    d                                             ",
"               9            X                 XX= ",
"       p               3            X     * OX XOX",
"                            X            XX $O  O,",
"                            X X         O  %  aO  ",
"              -                       O    XXXXO X",
"&&&q                  X X   d        X   XX   4   ",
"& O$    d        X d55665566e555$X        X O     ",
"XXXX                555556665665 o XX3         O *",
"& X           X  #  5555656r5666oX OXO     O   O  ",
"XX&      9        56fjjjkkkkkkkkt6$$XX  X  X      ",
"X&O$     d X    3 55fjjjkkkkkkkl66$  :O OO$O      ",
"  X             56ffjkkkkkkkkkkbkkeqO X        X  ",
"& OO            55ffjkkkkkkkkklxlk6XXX$<          ",
"XXO             55jjkkkkkkkllkllll7 XO 1 X      OO",
" O$O            56jjkkkkkkkkkklklk6O  X           ",
"XO  2        555ffkkkkkkkklzkkkllkx666 s        X ",
" O           556ffkkk kkkkkkllk klk665X  X        ",
"X            566ffkkk  Mklkkkl  klk565$%          ",
"&  O         555ffkkl   lklkk   kkk666 XXX        ",
"             555hglklkkkkkkkllkkkkl566X  XX%  X  *",
"             555gfkkkkkkklkklkkkkmk655  OOOO  * X ",
"             555fgkkkkk kk kk kkkkk666   O OXXX1 X",
"             555fgkkkk.k  k  k.kkkk666X XOOOO: %,:",
" d O  O      555fgkkkkkkkkkkkkxkkkk656 O O$       ",
" & &$        555ffkkkkkkkkkkkkkkkkk655O$   X  X   ",
"$O$OO&$     9555ffkkkkkkkkkkkkkkkkk556 %X        4",
"&&&&&$O   0  555ffnkkkkkkckkkkkkkMk555  X        X",
"O$&&O&&O     555ffkkkkkkkkkkkkkkkkk666          X ",
"OO&OO&OO     555ffkkklkkkkkkkkkkkkk656 X -        ",
"O&&&O&  d    555ffjjkjjjkkkkjkkkjkk655X X         ",
"&&&O&OO      555ffjjkjjjkkkkjkkkjlk655            ",
"  O&         555ffjjkNjjkkkkjkkkvlk655      X   w ",
"X& O   X     655ffffkfffkkkkfkkkfkk565 X          ",
"-X           555ffffkfffkkkkfkkkgkk56y            ",
"9    X       565ff55f565ffff5fff6fh565     p      ",
" X           r55ff55f555ffff5fff6ff555            ",
" &      =       55  5 p 5565 65i 56               ",
"X@      X    X  u5  5   5555O566 65               ",
"         X              X                3        ",
"                  d       X    O  X               ",
"                 =         @                  d   ",
"          O$$&$O      O      =      ;X            ",
"OO- d     O&& O O    ;@ X      X O XX            X",
" O$$O    & &$$$OO OO; @    O  X  X  X           @ ",
"&&O$     $& &&$OOOO>O ;@$$&$ O   9             8X8",
"$ $& & d & O$ $&X- @  X OXO&OO   X  X    X    X  X",
"$OO&&X@  O$$O O$ >@+   @ &O&OOO    @      X @   X@",
"OO  O&   OX O$OX X     &@O@&O&       X  X   d @8;X"
};
