/* XPM */
static char *xpm_[] = {
/* columns rows colors chars-per-pixel */
"50 50 43 1 ",
"  c #000100",
". c #020302",
"X c #010402",
"o c #030703",
"O c #050703",
"+ c #090300",
"@ c #040802",
"# c #000C00",
"$ c #020D00",
"% c #040E00",
"& c #020904",
"* c #030A04",
"= c #040804",
"- c #030D05",
"; c #040C05",
": c #050E06",
"> c #080A06",
", c #051102",
"< c #031400",
"1 c #031601",
"2 c #081107",
"3 c #0B1107",
"4 c #041C00",
"5 c #051F00",
"6 c #0C1208",
"7 c #0C170A",
"8 c #12170C",
"9 c #13180E",
"0 c #121D0C",
"q c #052000",
"w c #0D2B04",
"e c #18240F",
"r c #192510",
"t c #192710",
"y c #25321A",
"u c #303D22",
"i c #322132",
"p c #3B5524",
"a c #44632A",
"s c #799855",
"d c #CACEE1",
"f c #F8F8FB",
"g c white",
/* pixels */
"  8   #                          s    u          :",
"    s                                             ",
"               w            X                  o> ",
"       u               9            =   . ; =   &=",
"                                            =&  &6",
"                            =           &  o  p&  ",
"              %                       &    ==&o&  ",
"-;;r                  X X   s      .     =X   0  X",
"- &-    s        X siiiiiiiiiiii&         o.=     ",
"XXXX                iiiiiiiiiiii = XO9         =X-",
"- X           X  %  iiiiiiiiiiii=& # &     &   o X",
"XX-      w        iidfffggggggggii&-=   o  o      ",
"X-&&     s X    9 iidfffggggggggii&  6& &o&&      ",
" XX             iiddfgggggggggggggir&          .= ",
"-X#&            iiddfgggggggggggggiXXX&7       o  ",
"&X=             iiffggggggggggggggi X&o7 o      &.",
" #&X            iiffggggggggggggggiXX X           ",
"X&  8        iiiddgggggggggggggggggiii a        = ",
" =           iiiddggg ggggggggg gggiiiX           ",
"=            iiiddggg  ggggggg  gggiii&&          ",
"&  &         iiiddggg   ggggg   gggiii O=         ",
"             iiiddgggggggggggggggggiii   =X=  o  2",
"             iiiddgggggggggggggggggiii =&&&X  ; O ",
"             iiiddggggg gg gg gggggiii   = #= O7 =",
"             iiiddgggg+g  g  g+ggggiiiX X&&==3 ;62",
" s &  #      iiiddgggggggggggggggggiii = &&       ",
" ; ;&        iiiddgggggggggggggggggiii#X   X  X   ",
"=&&&&;&     wiiiddgggggggggggggggggiii =X        0",
"----;#=   e  iiiddgggggggggggggggggiii  X        =",
"#--;&;;&     iiiddgggggggggggggggggiii  X       = ",
"&O-X&&&&     iiiddgggggggggggggggggiii   ,        ",
"&---&;  s    iiiddffgfffggggfgggfggiii=           ",
"-&;&-&&      iiiddffgfffggggfgggfggiii            ",
"  &-         iiiddffgfffggggfgggfggiii      =   y ",
"X- &         iiiddddgdddggggdgggdggiii X          ",
",X           iiiddddgdddggggdgggdggiii            ",
"w    =       iiiddiidiiiddddidddiddiii     u      ",
" X           iiiddiidiiiddddidddiddiii            ",
" ;      >       ii  i u iiii iii ii               ",
"&,              ii  i   iiii#iii ii               ",
"                                         9        ",
"                  s       X    X XX               ",
"                 >         #                  s   ",
"          ==&;&&      =      >   X  1X            ",
"X#; s     X-; # X    <# X      X # XX            X",
" &;-X    ; -;&&== #X< % X  #  X  X  X           # ",
"-;=&     &; -;;&=##qX <%=#;& O   w             qXq",
"# ;% - s ; && =&X, #  X ;X&;&#   X  X    X    X  X",
"&=O-- #  ==;# == 5#=   % -&;&&&    #      X #   X%",
"&-  &-   #X &-#  X     =;&#;&;       X  X   s %q1X"
};
