/* XPM */
static char *_7a0b4484f82411e81a0d5f535dcc8b2bxUFfwpiO5gLypeK[] = {
/* columns rows colors chars-per-pixel */
"50 50 60 1 ",
"  c #000100",
". c #010401",
"X c #050703",
"o c #020803",
"O c #040802",
"+ c #000C00",
"@ c #040E00",
"# c #030B04",
"$ c #050904",
"% c #030D05",
"& c #060E06",
"* c #080A05",
"= c #041001",
"- c #031400",
"; c #0A1006",
": c #041C00",
"> c #0C1208",
", c #0A1509",
"< c #0C1609",
"1 c #12170C",
"2 c #13180E",
"3 c #121D0C",
"4 c #140D14",
"5 c #151216",
"6 c #171715",
"7 c #181316",
"8 c #1B1819",
"9 c #1F1B1C",
"0 c #052100",
"q c #0D2B04",
"w c #18240F",
"e c #192510",
"r c #1C2716",
"t c #25321A",
"y c #2F3228",
"u c #303D22",
"i c #3B5524",
"p c #44632A",
"a c #51535A",
"s c #51545B",
"d c #51575C",
"f c #636364",
"g c #636565",
"h c #666766",
"j c #666867",
"k c #686967",
"l c #686D66",
"z c #676B68",
"x c #676C68",
"c c #6A6B68",
"v c #6B6C6A",
"b c #697067",
"n c #6B7D66",
"m c #6B706A",
"M c #6B7469",
"N c #71746E",
"B c #799855",
"V c #6E8068",
"C c #838B7A",
"Z c #ACBE97",
/* pixels */
"  2   +                          B    u          &",
"    B                                             ",
"               q            .                 ..* ",
"       u               2            .     & o. .o.",
"                            .            .. #o  o>",
"                            . .         o  $  io  ",
"              =                       o    ....o .",
"%%%e                  . .   B        .   ..   3   ",
"% o#    B        . B444444445444#.        . o     ",
"....                444444544544 X ..2         o &",
"% .           .  @  444444474444X. o.o     o   o  ",
"..%      q        44afffjhhjjjhh84##..  .  .      ",
".%o#     B .    2 44afgfhhhhhjhz44#  ;o oo#o      ",
"  .             45aafjhhhjhhhhjmhh5eo .        .  ",
"% oo            44aaghhjhhhhhjzbzj4...#,          ",
"..o             44fghjhjhhhzzhzzzz6 .o < .      oo",
" o#o            44hfhhhhjhjjjhzjzj4o  .           ",
".o  1        444aahhhjhjhhzvjjjzzhb444 p        . ",
" o           444aahjh jjjjjhzzj jvh454.  .        ",
".            455aahjh  Chxjhhz. hzj444#$          ",
"%  o         444aajjz   zhjjj . hjj444 ...        ",
"             444dsljzhhhjhjjzzhhjjj444.  ..$  .  &",
"             444sahhhhhhkzhhzhhjhNh444  oooo  & . ",
"             444aahhhhh hh hj hhhhh455   o o...< .",
"             444ashhhh h  h  h hhhh444. .oooo; $>;",
" B o  o      444aahhhhhhhhhjhhbhhhh444 o o#       ",
" % %#        444aahhhhhhhhhhhhhhhhh444o#   .  .   ",
"#o#oo%#     q444aahhhhhhhhhhhhhhhhh444 $.        3",
"%%%%%#o   w  444aaVhhhhhhMhhjjhhhCh444  .        .",
"o#%%o%%o     444aahhhhhhhhhjhhhhhhj444          . ",
"oo%oo%oo     444aahhhchhhhhhhhjhhjh444 . =        ",
"o%%%o%  B    444aaffhfffhhhhfhjjfhj544. .         ",
"%%%o%oo      444aaffhffghhhhfhhhgzh444            ",
"  o%         444aaffhZfgjhhhfhhhnzh544      .   t ",
".% o   .     444aaaahaaahhhhahjhahh444 .          ",
"=.           444aaaahaaahhhhahhjshh449            ",
"q    .       444aa44a444aaaa4aaa4ad444     u      ",
" .           744aa44a444aaaa4aaa4aa444            ",
" %      *       44  4 u 4454 44y 45               ",
".+      .    .  r4  4   4444o445 54               ",
"         .              .                2        ",
"                  B       .    o  .               ",
"                 *         +                  B   ",
"          o##%#o      o      *      -.            ",
"oo= B     o%% o o    -+ .      . o ..            .",
" o##o    % %###oo oo- +    o  .  .  .           + ",
"%%o#     #% %%#oooo:o -+##%# o   q             0.0",
"# #% % B % o# #%.= +  . o.o%oo   .  .    .    .  .",
"#oo%%.+  o##o o# :+O   + %o%ooo    +      . +   .+",
"oo  o%   o. o#o. .     %+o+%o%       .  .   B +0-."
};
