/* XPM */
static char *xpm_[] = {
/* columns rows colors chars-per-pixel */
"50 50 33 1 ",
"  c #000100",
". c #010201",
"X c #010402",
"o c #030703",
"O c #030B03",
"+ c #000C00",
"@ c #030F00",
"# c #020904",
"$ c #050904",
"% c #030D05",
"& c #040C05",
"* c #060E06",
"= c #080A06",
"- c #140E05",
"; c #031300",
": c #051102",
"> c #021400",
", c #031400",
"< c #0A1006",
"1 c #041C00",
"2 c #0C1208",
"3 c #12170C",
"4 c #121D0C",
"5 c #121112",
"6 c #052000",
"7 c #0D2B04",
"8 c #192510",
"9 c #382D08",
"0 c #303D22",
"q c #3B5524",
"w c #997508",
"e c #799855",
"r c white",
/* pixels */
"  3   +                          e    0          &",
"    e                  ,,;,,                      ",
"               7      ,,,,,,,,;               XX= ",
"       0             ,,,Xwwwww,;,;  X     & #X X#X",
"                   ,,,wwXXwwwwwww,,,     XX ##  #2",
"                  ,,wwwwwXXwwwwwwww,,,  #  $  q#  ",
"              +  ,,wwwwwwwXXwwwwwwwwww,,   XXoo# X",
"%&&8            ,,wwwwwXwwwXXwwwwwwwwww,,X    4 X ",
"% #%    e      ,,wwwwwXwXwwwwXwwwwwwwww,,,X X  X  ",
"XXXX          ;,wwwwwXXwwXwwwwXXwwwwwwwww, X   #X&",
"% X          ,,wwwwwXXwwwwXwwwwXXwwwwwwww,,#   X  ",
"XX%      7  ,,wwwwwXXwwwwww,,wwwXXwwwwwwww,,      ",
"X%##     e ,,wwwwXXwwwwwwwww,,wwwXXwwwwwwww,,     ",
" XX       ,,wwwwXXwwwwwwwwwwwXXwww,,wwwwwwww,, X X",
"%X+$     ,,wwwwXXwwwwww9999999XXwww,,wwwwwwww,   X",
"#XX     ,,,wwwX999999999wwwwwwwX,www,,wwwwwww,; ##",
" X&X   ,,,wwwXXwwwwwwwwwwwrrwwwwXXwww,,wwwwwww,,o ",
"X+  3  XXwwwXXwwwwwwrrrrwwwrwwrrwX,www,,wwwwwww,; ",
" $    XXwwwwXwwwwwwwrwwrrwwrwwrwwwXXwww,,wwwwwX,; ",
"X    ;XwwwXXwwwwwwwwrwwwrwwrwwrwwrrXXwwwXXwwwXX55 ",
"&  # ; wwXXwwwwwwwrwrrwwrwwrrrrwrrrr,,wwwXXwXXwwX ",
"      ,wXX99999999r99rrrr9999999r99rr,,wwwXXXw99 $",
"      X,Xwwwwwwwwwrrwwww999999wrrrwwrw;,wwXXw99XX ",
"       ,Xwwwwrwwrwwrww99XXXXXXrrwrrwwwwXXw5w99XXXo",
"       ,Xwwwwrrwwrrr999XXXXXXXXXwwwwwwwwXXX99 ww5<",
" e #  +Xwwwwwwwrwrww99XXXXXXXXXXXwww99999XXXowwwXX",
" & &$   wwwwwwwrrrww9XXXXXXXXXXXX9999wwwXXXXwww9; ",
"#####&+Xwwwwwwwwwww9XXXXXXXXXXXXXwwwwwwwXwwwww99;4",
"%%%%&+XXX99999wwwww9XXXXXXXXXXXXXXwwwwwwXwww999w;o",
"#%%&#%&#Xwwww999999XXXXXXXXXXXXXXXwwwwwXXww99www; ",
"X#%X#$#+Xwwwwwwwww9XXXXXXXXXXXXXXXXwwwwXww99wwww; ",
"#&%%#&  Xwwwwwwwww9XXXXXXXXXXXXXXX wwwwXw99www99; ",
"%%%#&#o XXwwwwwwww9XXXXXXXXXXXXXXX 99wX999www99;; ",
"  +%     ;wwwwwwww9XXXXXXXXXXXXXXX 9999wwww999w,7 ",
"X< X    7;999999999XXXXXXXXXXXX    wwwXwww99www,7 ",
";X     77;-wwwwwww9XXXXXXXXXXXXXX wwwwXww99www,,7 ",
"7 X  o 7777wwwwwww99XXXXXXXXXX XX wwwwXw99www,,77 ",
"XX    777e77wwwwwww9XXXXXXXXXXXXXX99wXX99ww,,,777 ",
"X$    77e777wwwwwww99XXXXXXXXXXXX9999999ww,,7777e ",
"X;   7777777wwwwwww99XXXXXXXXX XXwwwwXwww,,777777 ",
"      777777,9www9999XX XXXXXXXXowwwwXw,,,77e7e77 ",
"      777e7779999www99XXX XX  XX9wwwXo,,,7777777  ",
"       7777777wwwwww99XXXXXXXXXXwwwwX;,,,7e7777   ",
"        7ee777wwwwww99XXXXXXXXXXwww,,;,7777777    ",
" #, e    7777777e777999XXXXXo oXw;,,,,7777777    X",
" #$$o    %7777777777777777777777;;,,,777777     ; ",
"%%##     #$ 77777e777777777777777777777e77     6X1",
"+ && % e & +% $7777777777777777777777777      o  X",
"$#o%%X+  o#%+ o$ 1+X  7777e77777   +      X +    ;",
"#$  #%   +o #$+X X     &;777#$       X  X   e ;1; "
};
