/* XPM */
static char *xpm_[] = {
/* columns rows colors chars-per-pixel */
"50 50 63 1 ",
"  c #000100",
". c #000402",
"X c #010402",
"o c #030402",
"O c #030603",
"+ c #050703",
"@ c #030B03",
"# c #000C00",
"$ c #020D00",
"% c #040E00",
"& c #020904",
"* c #030A04",
"= c #040804",
"- c #030D05",
"; c #040C05",
": c #060E06",
"> c #080A06",
", c #041001",
"< c #051102",
"1 c #031400",
"2 c #031601",
"3 c #081107",
"4 c #041C00",
"5 c #051F00",
"6 c #0C1208",
"7 c #0C1609",
"8 c #0C170A",
"9 c #12170C",
"0 c #13180E",
"q c #121D0C",
"w c #281E02",
"e c #052000",
"r c #0D2B04",
"t c #18240F",
"y c #192510",
"u c #192710",
"i c #382A02",
"p c #25321A",
"a c #2D3E21",
"s c #303D22",
"d c #413103",
"f c #423203",
"g c #423303",
"h c #423304",
"j c #423404",
"k c #433805",
"l c #433905",
"z c #3B5524",
"x c #484407",
"c c #4C5206",
"v c #665F1C",
"b c #44632A",
"n c #799855",
"m c #B38809",
"M c #B38909",
"N c #B48B09",
"B c #E1AA0B",
"V c #E1AA0C",
"C c #F3B80C",
"Z c #FBBE0D",
"A c #FFC10C",
"S c #FFC20E",
"D c #F5E49C",
/* pixels */
"  9   #                          n    s          ;",
"    n                                             ",
"               r            X                 XX> ",
"       s               0            X   X ; &  X&X",
"                                          X -&  &6",
"                            +           &  >  z&  ",
"              %                       &     X=X= X",
"-;;y                  X X   n        X   XXX  q X ",
"- &-    n        X n       X&   ;X        X &     ",
"XXXX                      X+ #   + XX0         &X;",
"- X           X  %      o  >   X-oX&X&   X &   X  ",
"XX-      r                  X   3 &&XX  X  =      ",
"X-&&     n X    0              &  -  3& &O&&  X   ",
" XX              X            o3  &u& XX       X X",
"-X#&                X         =<&XXX X-6X X    X X",
"&X=                    X   && &&+#< X&X6X       &&",
" #;o                    X   X X &X &X o           ",
"X&  0                     #> =X&& <  X b    X   o ",
" =                 jgggf  X +# X ;  #    X        ",
"X             oX hhjgggvjkX  &&  &X   &&          ",
";  X            fffMSSSAjgkX  &      X XXX        ",
"                kjNSSZAASSjjX&  = & = XX &X=  & X3",
"               fjBDSSAAAASjgk  = 0      &&&#  ; X ",
"X              ffVDSSAAAAASjj      o=X X o &OXX8 X",
"               ffADSSAAASASgg         X X&&&=3 -63",
" n &  #         fZSSSZSAAAZgg <        & &&       ",
" ; =&          fgCADSSSSAAgg       X  X=   X  X   ",
";&&&&;-     r  fggBADDDSAZgg           =X        q",
"---;;&#   t    iffcMZSSZNxjj     s      X      o o",
"#--&&-&=        wwwfhhffww        X  =  X       X=",
"Xo-&&-&o             =             X     <        ",
"-;--&;  n                     X    &  X           ",
"---X;=&                          & X  X           ",
"  &;                 n  X       rX #        X   p ",
"X; &                          X        =          ",
"<X                                   9            ",
"rX   X                            X        s      ",
"XX           >                                    ",
" -      >             s   X    aX &               ",
"+<              r           &  & &                ",
"         +                               0        ",
"                  n       X    X XXX              ",
"                 >         %                  n   ",
"          X;&-;X      &      >     X<X            ",
"=X< n     &;; = O    2# X      X # XX            X",
" &&;X    ; ;-#==# ;#< % X  #  X  X  X           % ",
";;#&     && ---=+X#e# <<-#;& X   r             eXe",
"; &; - n ; #& =-X% #  X &X&;=#   X  X    X    X  X",
"&&=;;X#  =-;# =& 5#+   % ;&;&&&    #      X #   X#",
"##  =;   #X =&#X X     &;&#;&;       X  X   n %e2X"
};
