/* XPM */
static char *xpm_[] = {
/* columns rows colors chars-per-pixel */
"50 50 58 1 ",
"  c #000100",
". c #020302",
"X c #010402",
"o c #030402",
"O c #030603",
"+ c #050703",
"@ c #030B03",
"# c #000C00",
"$ c #030F00",
"% c #040E00",
"& c #020904",
"* c #030A04",
"= c #040804",
"- c #030D05",
"; c #040C05",
": c #050E06",
"> c #080A06",
", c #051102",
"< c #031400",
"1 c #031601",
"2 c #081107",
"3 c #041C00",
"4 c #051F00",
"5 c #081805",
"6 c #0C1208",
"7 c #0C170A",
"8 c #12170C",
"9 c #13180E",
"0 c #121D0C",
"q c #281E02",
"w c #052000",
"e c #0D2B04",
"r c #18240F",
"t c #192510",
"y c #192710",
"u c #382A02",
"i c #25321A",
"p c #2D3E21",
"a c #303D22",
"s c #413103",
"d c #423203",
"f c #423303",
"g c #423304",
"h c #433304",
"j c #433605",
"k c #433705",
"l c #433805",
"z c #3B5524",
"x c #44632A",
"c c #799855",
"v c #B38809",
"b c #E1AA0B",
"n c #F3B80C",
"m c #FBBE0D",
"M c #FEC00C",
"N c #FFC10C",
"B c #FFC20E",
"V c #F5E49C",
/* pixels */
"  8   #                          c    a          ;",
"    c                                             ",
"               e            X                 oo> ",
"       a               9            X   X , @o o&=",
"                                          o &&  &6",
"                            +           &  &  z&  ",
"              %                       &    X=X=&  ",
"-;;t                  X X   c        X   =o   0  X",
"- &-    c          c       X&   =X        = =     ",
"XXXX                      X+ #   = XX9         XX-",
"- X           X  %      o  >   X==X&X&     &   =  ",
"XX-      e                  X   2 &&XX  =  =      ",
"X-&&     c X    9              &  ;  2& X=&&      ",
" XX              X            o2  &y& X     .  == ",
"-X#&                          =,&X XXX&7o X       ",
"&X=                kskgk   && &&&&,  #o7        &=",
" #=o             shskgggkg X  # &X &X &           ",
"X&  9           gssvNBmNssk>XX X& ,  X x        X ",
" =              ggvNNNNNmNks==XX ;  #             ",
"o             +jsbVNBNBNNNggg#&  &    &=          ",
";  &           ssbVNNNNNNNmjk &      =  =o        ",
"               slNVNBNNNNNNjkX  = & = == =X=  = X;",
"                kNNNBNBNNNNgl  X 9      &&&=  : X ",
"X              ssnNVBBBNNNgjX        = X X #= .7 =",
"               gggbmVVVNNmss            X&&==2 =62",
" c &  #        ughgvNNNmvggk  ,        & && X     ",
" ; ;&           qqqgggggqq            ==      X   ",
"&&&&&;&     e                          =X        0",
"-;&;;#=   t       e      5       a      X      o  ",
"&&:&&;;X                          X     X       ==",
"&&,#&&-X             =             =   X ,        ",
"&-;;&;  c                     X    &  X           ",
"--&&;X&                          &                ",
"  &;                 c  X       eX &        =   i ",
"X; #                          X        o          ",
",&                                   9            ",
"e    =                            =        a      ",
" =           >                                    ",
" -      >             a   =    pX &               ",
"=%              e           @  & &                ",
"         =                               9        ",
"                  c       X    X XX               ",
"                 >         ,                  c   ",
"          X;&;;X      &      >   X  1X            ",
"&X, c     &;; = =    1# X      X # XX            X",
" &&;X    ; ;;#&=# #X1 % X  #  X  X  X           , ",
";;#=     && -;;&%X#wX 1%&#;& o   e             wXw",
"- -; ; c ; #& &-X% #  X =X&;&&   X  X    X    X  X",
"&&=;-X,  X&,X =& 4%+   , -X-#&#    %      X #   X,",
"#@  X;   #XX&&#X X     @&&;;&;       X  X   c #w1 "
};
