/* XPM */
static char *xpm_[] = {
/* columns rows colors chars-per-pixel */
"50 50 54 1 ",
"  c #000100",
". c #020302",
"X c #010402",
"o c #030402",
"O c #030603",
"+ c #050703",
"@ c #030B03",
"# c #000C00",
"$ c #020D00",
"% c #040E00",
"& c #020904",
"* c #030A04",
"= c #040804",
"- c #030D05",
"; c #040C05",
": c #080A06",
"> c #051002",
", c #051102",
"< c #031400",
"1 c #031601",
"2 c #081107",
"3 c #041C00",
"4 c #051F00",
"5 c #0C1208",
"6 c #0A1509",
"7 c #0C170A",
"8 c #12170C",
"9 c #13180E",
"0 c #121D0C",
"q c #281E02",
"w c #052000",
"e c #0D2B04",
"r c #18240F",
"t c #192510",
"y c #192710",
"u c #382A02",
"i c #25321A",
"p c #2D3E21",
"a c #303D22",
"s c #423203",
"d c #423304",
"f c #423404",
"g c #3B5524",
"h c #44632A",
"j c #799855",
"k c #B38809",
"l c #E1AA0B",
"z c #F3B80C",
"x c #FFC00C",
"c c #FFC10C",
"v c #FEC00D",
"b c #FFC20E",
"n c #9CA342",
"m c #F5E49C",
/* pixels */
"  8   #                          j    a          ;",
"    j                                             ",
"               e            X                 XX: ",
"       a               9            X   X ; &X X&X",
"                                         =O &&  &5",
"                            +           &  =  g&  ",
"              %                       &     OOO& X",
"-;;t                  X X   j        X    O   0 X ",
"- &-    j        X j       X&   =X        O &     ",
"XXXX                      X+ #   = XX9         &X-",
"- X           X  %      o  :   X&X &X&   o &   O  ",
"XX-      e                  X   5 &-XX  O  O      ",
"X-&&     j X    9              &  -  6& &O&&  o   ",
" XX              X            o2  &tO O        oX ",
"-X#&                X         =,&O o O&7       o  ",
"&X=                    X   && &&O#>O & 7oo      &&",
" =;X                    X X X # &X &X &           ",
"X#  9                     &:X  && ,  X h        = ",
" X                       XX #&X  ;  #             ",
"X             XX      Xa &   &&  &    &=          ",
";  &               X&   & #X  &      =  =         ",
"                & + =   X  =X&  = & = == =OO  = X;",
"                        X&  o  = 8      =&&O  ; = ",
"                 X dffss    X      XXo X = #O =6 o",
"X                ffkcccbfd              X&&=X6 =52",
" j &  #         ffkcccccccfX  ,        & && X     ",
" ; ;&           dlmbcbcczcfs       X  ==   X      ",
"=&&&&;&     e  sdlmbbcccbccsf          =X        0",
"-;--;&&   r    sscmzbbbccccsf    a      X      o =",
"&&-;#;;+       ssccbbbcbcbzds           X       Xo",
"&&;&&&&&        fzbmbbbzccssd      =   X ,        ",
"#-;&#-  j      ssflcmmmcccsd  X    &  X           ",
"-;;&;=&        fssskczcckdds     &    X           ",
"  X-           ussssfnssddss    eo &        o   i ",
"X- =            qqqsfsssqq    X        X          ",
",=                  oo               9            ",
"e    X                            =        a      ",
" o           :                                    ",
" ;      :             a   X    pX &               ",
"=,              e           #  & &                ",
"         +                               9        ",
"                  j       X    X XX               ",
"                 :         #                  j   ",
"          X;&-;X      &      :   X  1X            ",
"=X, j     &;; = =    <# X      X # XX            X",
" &&;X    ; ;-#&X# #X, % X  #  X  X  X           # ",
";;#&     && -;;&;X#w# <%=#;= X   e             wXw",
"; &; ; j ; #& -;X% #  X -X-;=#   X  X    X    X  X",
"&&=;;X#  =-;# =& 4#=   % -&;&&&    #      X #   X%",
"##  =;   #X =&#X X     =;&#=-;       X  X   j %w1X"
};
