/* XPM */
static char *xpm_[] = {
/* columns rows colors chars-per-pixel */
"50 50 58 1 ",
"  c #000100",
". c #020302",
"X c #010402",
"o c #030402",
"O c #030603",
"+ c #050703",
"@ c #030B03",
"# c #000C00",
"$ c #020D00",
"% c #040E00",
"& c #020904",
"* c #030A04",
"= c #040804",
"- c #030D05",
"; c #040C05",
": c #080A06",
"> c #041001",
", c #051102",
"< c #031400",
"1 c #031601",
"2 c #081107",
"3 c #041C00",
"4 c #051F00",
"5 c #0C1208",
"6 c #0A1509",
"7 c #0C170A",
"8 c #12170C",
"9 c #13180E",
"0 c #121D0C",
"q c #281E02",
"w c #052000",
"e c #0D2B04",
"r c #18240F",
"t c #192510",
"y c #192710",
"u c #382A02",
"i c #25321A",
"p c #2D3E21",
"a c #303D22",
"s c #413103",
"d c #423303",
"f c #423304",
"g c #423404",
"h c #443605",
"j c #443A03",
"k c #433805",
"l c #3B5524",
"z c #44632A",
"x c #799855",
"c c #B38809",
"v c #E1AA0B",
"b c #E1AA0C",
"n c #F3B80C",
"m c #FBBE0D",
"M c #FFC00C",
"N c #FFC10C",
"B c #FFC20E",
"V c #F5E49C",
/* pixels */
"  8   #                          x    a          ;",
"    x                                             ",
"               e            X                 XX: ",
"       a               9            X   X ; &X X&X",
"                                         =O &&  &5",
"                            +           &  =  l&  ",
"              %                       &     OOO& X",
"-;;t                  X X   x        X    O   0 X ",
"- &-    x        X x       X&   =X        O &     ",
"XXXX                      X+ #   = XX9         &X-",
"- X           X  %      o  :   X&X &X&   . &   O  ",
"XX-      e                  X   5 &-XX  O  O      ",
"X-&&     x X    9              &  -  2& &O&&  .   ",
" XX              X            o2  &t& =        .X ",
"-X#&                X         =,&O . O&7       .  ",
"&X=                    X   && &&O#,O & 7 O      &&",
" =;X                        O &X&O &X =           ",
"X#  9                     #:   && ,  X z    .   = ",
" o                    X XX  #&X  ;  #             ",
"X             XX      Xa &X  &&  &    &&          ",
";  =               gkggg& #X  &      =  =         ",
"   X            Xhjfkfgggf XO&  = & X == =OO  O X;",
"                gffcMMMMhjf O  O 8      &O&O  ; X ",
"                ggcMMMMMMMfgX      X = = = #O.O6 =",
"X              dgvVBBBMBMMggg           X&&&=2 =52",
" x &  #        sgbVBBMBMMMMgg ,        & && X     ",
" ; ;&          ggMVBBMMBMBMgf      =  =o   X      ",
"&&&&&;&     e   gMBBBMBMMMMgf          &X        0",
"-;--;-&   r    ggnMVMMMMMmsf     a      X      o o",
"&&-;#=;X       ssgvMVVVMMmsf            X       X=",
"&&;&&&&&       ugggcMMMMcgff       =   X ,        ",
"#-;;#;  x       qqqsggsgqq    X    &  X           ",
"&;;&;&&                          & X              ",
"  &;                 x  X       eX #        =   i ",
"&; &                          X        =          ",
",o                                   9            ",
"e X  o                            X        a      ",
" X           :                                    ",
" ;      :             a   X    pX &               ",
"o,              e           &  & &                ",
"         +                               9        ",
"                  x       X    X XX               ",
"                 :         %                  x   ",
"          X;&;;X      &      :   X  <X            ",
"&X, x     &;; = X    <# X      X # XX            X",
" &&;X    ; ;-#&&& ;#, % X  #  X  X  X           # ",
";;#=     && -;;&%.#w# <%-#;& X   e             wXw",
"; &; ; x ; #& &;X% #  X &X&;=#   X  X    X    X  O",
"&&=;;X#  &;;# =& 4#+   # -&;&&&    #      X #   X%",
"##  =;   #X ==#X X     ;;=#;&;       X  X   x %w<X"
};
