/* XPM */
static char *xpm_[] = {
/* columns rows colors chars-per-pixel */
"50 50 59 1 ",
"  c #000100",
". c #010402",
"X c #030402",
"o c #030603",
"O c #050703",
"+ c #030B03",
"@ c #000C00",
"# c #030D03",
"$ c #040E00",
"% c #020904",
"& c #030A04",
"* c #040804",
"= c #030D05",
"- c #040C05",
"; c #050E06",
": c #080A06",
"> c #051002",
", c #051102",
"< c #031400",
"1 c #031601",
"2 c #081107",
"3 c #041C00",
"4 c #051F00",
"5 c #0C1208",
"6 c #0A1509",
"7 c #0C170A",
"8 c #12170C",
"9 c #13180E",
"0 c #121D0C",
"q c #281E02",
"w c #052000",
"e c #0D2B04",
"r c #18240F",
"t c #192510",
"y c #192710",
"u c #382A02",
"i c #25321A",
"p c #2D3E21",
"a c #303D22",
"s c #413103",
"d c #423203",
"f c #423303",
"g c #423304",
"h c #433605",
"j c #463806",
"k c #3B5524",
"l c #484407",
"z c #4C5206",
"x c #44632A",
"c c #799855",
"v c #B38809",
"b c #B38909",
"n c #E1AA0B",
"m c #E1AA0C",
"M c #F3B80C",
"N c #FBBE0D",
"B c #FFC10C",
"V c #FFC20E",
"C c #F5E49C",
/* pixels */
"  8   @                          c    a          -",
"    c                                             ",
"               e            .                 ..: ",
"       a               9            .   X - %  .%X",
"                                          X %%  +7",
"                            O           %  -  k%  ",
"              $                       %     X*.%  ",
"=--t                  . .   c        .   XXX X0   ",
"= %=    c        . c       .%   %.        * %     ",
"....                      .O @   O ..9         %.-",
"= .           .  $      X  :   .-O.%.%   X %   * X",
"..=      e                  .   2 %%..  X  .      ",
".=%%     c .    9              %  -  2% %X%%  X   ",
" ..              .            X2  %y% *        XX ",
"=.@%                .         *,%. ...%6X .    X  ",
"%.*                    .   %% %%%%,  @.7        %%",
" @**                        * %.%. %. o           ",
".%  8                     @:   %% ,  . x    X   o ",
" X                       .  o@.  -  @    .        ",
"*             *    bVVVB %.  %%  %.   %*          ",
"-  .             fbVVBBBNV@.  %      * XXX        ",
"                jmCVVVVBVVf.%%  X % X XX *.*  XX ;",
"                gnCVVBBBBBNg%  . 8      %%%@  - o ",
"X              fgNCVVBBBBBVgh      *.* X X %XXX7 *",
"               ffBBVVVVNVBNff         .  %o**2 *52",
" c %  @        ffMBCVVVNBBfff $        % %%*      ",
" - -%           ffnNCCCVBNffg      X  *o      *   ",
"%%%%%-%     e  ffffvVBVNvfff           *o        0",
"=-+--@*.  r    ffszffffsslgg     a      .         ",
"%%-=%--.       usffsffsffffh      X  o  .       **",
"%%=@%%=.        qqqsfjffqq         .     ,        ",
"%==-%-  c                     X    %  o           ",
"==%%=o%                          %    .           ",
"  %-                 c  .       e. %        X   i ",
".- @                          .        X          ",
",%                                   9            ",
"e    o                            *        a      ",
" X           :                                    ",
"X>      :             a   *    p. %               ",
"X-              e           +  % %                ",
"         *                               9        ",
"                  c       o    . ..               ",
"                 :         $                  c   ",
"          .-%--.      %      :   .  1.            ",
"%., c     %-- * *    1@ .      . @ ..            o",
" %%-.    - -=@%o@ @.1 $ .  @  .  .  .           @ ",
"--@*     %% =--%@o@w  1$%@-% *   e             w.w",
"= =- - c - @% %=.$ -  . *.%-%.   .  .    .    .  .",
"%%*-=.-  %=-@ *- 3@*   - %%-%%@    -      . @   o=",
"@+  .-   @. X%@. .    .*-@,+%-       .  .   c $w1."
};
