/* XPM */
static char *_6ced5c4cb374a27828713653199a422pb3TJMDrHXHgKOQO[] = {
/* columns rows colors chars-per-pixel */
"50 50 133 2 ",
"   c black",
".  c #000600",
"X  c #000B03",
"o  c #000D01",
"O  c #000D05",
"+  c #050F04",
"@  c #090B06",
"#  c #0F0806",
"$  c #0F0F06",
"%  c #150F08",
"&  c #1B0F0B",
"*  c #001200",
"=  c #001600",
"-  c #001206",
";  c #071206",
":  c #081306",
">  c #091406",
",  c #001B00",
"<  c #031F00",
"1  c #051409",
"2  c #0D190A",
"3  c #1B130A",
"4  c #101D09",
"5  c #101C0C",
"6  c #1E1010",
"7  c #121E11",
"8  c #20100A",
"9  c #22120F",
"0  c #24130F",
"q  c #26140F",
"w  c #2B160E",
"e  c #2C170E",
"r  c #251C0E",
"t  c #2C1A11",
"y  c #331C13",
"u  c #381F15",
"i  c #002100",
"p  c #052700",
"a  c #062900",
"s  c #0F2D00",
"d  c #13210B",
"f  c #17260E",
"g  c #17280D",
"h  c #192A0F",
"j  c #132111",
"k  c #1B2B11",
"l  c #182D10",
"z  c #3C2317",
"x  c #3F2418",
"c  c #283C17",
"v  c #25351A",
"b  c #422419",
"n  c #44251A",
"m  c #48271B",
"M  c #4B271C",
"N  c #49281B",
"B  c #4B281C",
"V  c #4C291D",
"C  c #582C1A",
"Z  c #62311D",
"A  c #533B38",
"S  c #593E39",
"D  c #653C33",
"F  c #2E471A",
"G  c #2C401E",
"H  c #2F481B",
"J  c #314A1A",
"K  c #304B1D",
"L  c #33501D",
"P  c #335020",
"I  c #385421",
"U  c #395823",
"Y  c #3B5B25",
"T  c #3F6B35",
"R  c #405E25",
"E  c #78452D",
"W  c #62423B",
"Q  c #65433D",
"!  c #6D4739",
"~  c #7A4630",
"^  c #784B31",
"/  c #784D33",
"(  c #7D4C33",
")  c #7F4B37",
"_  c #744838",
"`  c #426227",
"'  c #5A793E",
"]  c #5C7B3E",
"[  c #677A54",
"{  c #525667",
"}  c #824127",
"|  c #824228",
" . c #874B30",
".. c #854934",
"X. c #894B35",
"o. c #8D4D35",
"O. c #814B3A",
"+. c #854D39",
"@. c #894D39",
"#. c #8D4F39",
"$. c #915037",
"%. c #955235",
"&. c #995437",
"*. c #9C5537",
"=. c #91513A",
"-. c #995539",
";. c #9D573A",
":. c #A15839",
">. c #895442",
",. c #8F5742",
"<. c #895544",
"1. c #6D8D4B",
"2. c #6D8E4D",
"3. c #72885C",
"4. c #739452",
"5. c #749552",
"6. c #779754",
"7. c #789855",
"8. c #C09A72",
"9. c #F3B27B",
"0. c #F4B37C",
"q. c #F8B67E",
"w. c #C4B98F",
"e. c #F2B784",
"r. c #FFBB82",
"t. c #EABF9A",
"y. c #CCC194",
"u. c #F7C496",
"i. c #E8C1A1",
"p. c #EBDDAB",
"a. c #F4DBA6",
"s. c #F4E5B1",
"d. c #CACAD0",
/* pixels */
"o           ,                                               . o . . . . . . o . . . . . . . . . . o ",
"o                     i                                 .   . . . . . . . . . . . . . X . . . . . . ",
";                       o           o                     2 . .   . . . . . . . . . . . . . > . . . ",
"-                                             7.    .     . . . . h . o . . . . . . o . . . . X . . ",
"o                                           o           . .   o > . X X . . . . . . > . . . o . . k ",
"X                                               X       o . > + o f k k . . . . . . . > . f I . o X ",
"X X                         p                 . . . . . X X . . X . o . . . . . o . > . . o > . X X ",
"X X X Y                             i       a   ,   . . X . . . . X . X . . X . . X X X h   2 . . . ",
"X X . X                           < <       i   . s.s.s.X . . . X X o . . . . . . . o . . . . . . . ",
"X X X X                               s   . . . s.} } } s.+ . . . k . . X . . . . . . . . . . . . X ",
"X X X                       i     i         . s.} ;.;.:.s.. X . k o . . X . . . X . . .   . . . . . ",
"X X X               o           s.s.s.. . @ s.} ;.;.:.:.s.p.. . k s.s.s.. . X . . . . . . . . . . X ",
"X X . X               .       s.} } :.:.s.y.E ;.;.:.:.;.~ w.s.s.s.:.;.} s.h . . . . X . . . . . . . ",
"O X X                         s.} &.:.:.} ^ :.;.;. .%.*.;.( / / :.:.:.} s.o X . . . . . . . . . . . ",
"X . . .                       s.} &.;.:.;.;.} } o.} } o.} } ;.:.;.:.:.} s.. X ; ; X . . . . . . . . ",
"; X . .                       s.s.:.=.:.:.} } } } } } } } } } :.:.:.:.s.s.. . > k X X . . . . . . . ",
"o . X .                       s.s.:.:.-.} } } } } } } } } } } } :.:.} s.. X X o o o . o . . . . o . ",
"X .     2.                      s.s.:.} } :.:.:.:.:.:.:.:.:.@.A } } s.. . . . ` > . X . o . > . . . ",
"o . . .         o             .   s.} } } :.:.:.:.:.:.:.:.:.@.S } } s.. . . X . o . X . o > o . X X ",
"X   X                       P . s.} } D #.:.@.#.:.:.:.;.+.;.:.-.>.:.0.s.. . . > o o . X . o . o > X ",
"X X   .                   X .   s.} } ..:.0._ W ;.:.-.) ! +.:.r.;.:.0.s.. X . X . X . . . X o . o > ",
"7 . X                           s.} } X.:.0.:.} ;.:.=.A } Q :.r.;.;.0.s.X . . . . 2 . ; . . . . k o ",
"O X X .                         s.} ;.:.0.0.r.:.:.0.:.:.$.;.r.r.;.} } 0.. . . . . . . . . . o . o . ",
"X X X l . .                   s.} } -.O.0.:.e } -.:.:.} e } r.r.0.} } } s.. . . . . . . . . . > X X ",
"X . . X . X                   s.} } } } 0.:.e } 0.:.:.} e } 0.0.0.} } 0.s.. . . X . . . . + . > k f ",
"o X X X     =                   s.} } } 0.:.e } 0.0.0.} e } 0.0.0.} } s.. . . . . . . . . X X .   . ",
"X X X X X                       s.} } u.0.0.,.{ 0.0.t.d.<.0.0.0.;.} } } . . . . . . . . . . . . k . ",
"X X X X X X             a     s.} } } 0.0.0.0.0.0.0.0.0.0.0.0.0.0.} } } s.. . > > X . . . > h c X 2 ",
"X X X X * .         U         s.} 0.} } } 0.0.i.} } } } 0.0.0.0.0.} } } s.. o . . . . . . X + : .   ",
"X X X X , *                   s.} 0.0.} } 0.0.0.9 0 6 } 0.0.0.;.;.} 0.} s.X . o . X . . . X X X o + ",
"X X X X .                     s.} 0.0.0.} } 0.0.w e q } 0.0.;.;.} 0.0.} s.. . . . . . h k . 2 . f   ",
"o X X X .                     s.} } 0.0.} } 0.0.0.} q 0.0.0.} } 0.q.} 8.s.. . . . o . . . . X . X . ",
"X X o X                       s.w 8 0.0.0.} } } 0.0.0.0.e.} } 0.0.} } s.. . o . . . . k > . + . X . ",
"X X X O o                     s.C Z 0.0.0.0.q.r.r.s.s.r.r.r.0.r.0.} } s.X . . X . X . X o o . . ] . ",
"X X X .                       s.s.} r.0.0.0.0.0.s.s.s.s.| 0.0.0.0.} s.s.y $ X o . . X > . . . .   . ",
"X X X .                         s.} } 0.0.9.0.} s.s.s.a.} 0.0.0.0.} s.s.n $ . . X X X . X g . . . . ",
"X X X .   L                 i < s.} } 0.0.0.0.} s.s.s.s.} } 0.0.} } s.s.n t 2 f > o h . I f . .     ",
"; X   X                         s.} } 0.0.0.} } s.V V V s.} } 0.} } s.V N z + ; 2 + X ; R   . .   ; ",
"o X .                           s.s.} } 0.0.} } s.V V V s.} 0.} } } s.V b 3 . f X f 4 X . .   . .   ",
"j i * L         =         =     s.s.} } 0.0.} s.V V V V s.} } } } s.s.V % .   . . X . . .   .   .   ",
"1 . . <     5.    1.          & V s.} } 0.} } s.V V V V V s.s.s.s.s.V t . .     .   . . .   d       ",
"X . .                         q V s.s.} } } } s.V V V V V M V V V V q . . .   .   . . . . . v       ",
"3.G X   <         =           q V T s.s.s.s.s.V V V V V V V V V b 3 . .           .       . .       ",
"O   X               H     =   q V V V V V V V V V V V V V V B n $ . .                 . . .     < K ",
"[ 5 X .                     < # z u x V V V V V V B B B B n 3 . . .   .           . d   .   H       ",
"X .                             # q y y b b B B m n n n y . . . . . . H             .               ",
"X                 =                 & & q t u u u t q r #   . . .                 .                 ",
"o .                         =   < F   <             2.      *   X                           K       ",
"X X               *   K             = 2.      '     2.        ' =     ,               J         4.  ",
"O X                   6.            F         2.      4.    J <                 J                   "
};
