/* XPM */
static char *b5984aded2cc4c36c7286c9e32ac8a87da15zOokLEsQCYLy[] = {
/* columns rows colors chars-per-pixel */
"50 50 126 2 ",
"   c black",
".  c #000600",
"X  c #000B03",
"o  c #000D01",
"O  c #000D05",
"+  c #050F04",
"@  c #0F0806",
"#  c #0F0F06",
"$  c #150F08",
"%  c #1B0F0B",
"&  c #001200",
"*  c #001600",
"=  c #001206",
"-  c #071206",
";  c #081306",
":  c #091406",
">  c #001B00",
",  c #031F00",
"<  c #051409",
"1  c #0D190A",
"2  c #1B130A",
"3  c #101D09",
"4  c #101C0C",
"5  c #1E1010",
"6  c #121E11",
"7  c #20150A",
"8  c #22120F",
"9  c #24130F",
"0  c #26140F",
"q  c #2B160E",
"w  c #2C170E",
"e  c #251C0E",
"r  c #2A190D",
"t  c #2C1A11",
"y  c #331C13",
"u  c #381F15",
"i  c #002100",
"p  c #052700",
"a  c #062900",
"s  c #0F2D00",
"d  c #13210B",
"f  c #17260E",
"g  c #17280D",
"h  c #192A0F",
"j  c #132111",
"k  c #1B2B11",
"l  c #182D10",
"z  c #3C2317",
"x  c #3F2418",
"c  c #283C17",
"v  c #25351A",
"b  c #422419",
"n  c #44251A",
"m  c #48271B",
"M  c #4C271D",
"N  c #49281B",
"B  c #4B281C",
"V  c #4C291D",
"C  c #61321E",
"Z  c #66341E",
"A  c #533B38",
"S  c #593E39",
"D  c #653C33",
"F  c #2E471A",
"G  c #2C401E",
"H  c #2F481B",
"J  c #314A1A",
"K  c #304B1D",
"L  c #33501D",
"P  c #335020",
"I  c #385421",
"U  c #395823",
"Y  c #3B5B25",
"T  c #3F6B35",
"R  c #405E25",
"E  c #62423B",
"W  c #65433D",
"Q  c #6D4739",
"!  c #774C32",
"~  c #784C31",
"^  c #7D4D33",
"/  c #7F4B37",
"(  c #744838",
")  c #6F503B",
"_  c #426227",
"`  c #5A793E",
"'  c #5C7B3E",
"]  c #677A54",
"[  c #525667",
"{  c #824127",
"}  c #854934",
"|  c #894B35",
" . c #8D4D35",
".. c #814B3A",
"X. c #874E3B",
"o. c #894F3A",
"O. c #8D4F3A",
"+. c #925237",
"@. c #995337",
"#. c #995437",
"$. c #91513A",
"%. c #995539",
"&. c #9E573A",
"*. c #9A573C",
"=. c #A15839",
"-. c #895442",
";. c #8F5742",
":. c #895544",
">. c #6D8D4B",
",. c #6D8E4D",
"<. c #72885C",
"1. c #739452",
"2. c #749552",
"3. c #779754",
"4. c #789855",
"5. c #C09A72",
"6. c #F3B27B",
"7. c #F4B37C",
"8. c #F9B77F",
"9. c #F2B784",
"0. c #FFBB82",
"q. c #EABF9A",
"w. c #F7C496",
"e. c #E8C1A1",
"r. c #F4E5B1",
"t. c #CACAD0",
/* pixels */
"o           >                                               . o . . . . . . o . . . . . . . . . . o ",
"o                     i                                 .   . . . . . . . . . . . . . X . . . . . . ",
"-                       o           o                     1 . .   . . . . . . . . . . . . . : . . . ",
"=                                             4.    .     . . . . h . o . . . . . . o . . . . X . . ",
"o                                           o           . .   o : . X X . . . . . . : . . . o . . k ",
"X                                               X       o . : + o f k k . . . . . . . : . f I . o X ",
"X X                         p                 . . . . . X X . . X . o . . . . . o . : . . o : . X X ",
"X X X Y                             i       a   >   . . X . . . . X . X . . X . . X X X h   1 . . . ",
"X X . X                           , ,       i   . . r.r.r.. . . X X o . . . . . . . o . . . . . . . ",
"X X X X                               s   . . . . r.r.{ { r.. . . k . . X . . . . . . . . . . . . X ",
"X X X                       i     i         . . r.r.=.=.=.r.X . k o . . X . . . X . . .   . . . . . ",
"X X X               o           r.r.r.. .     r.r.r.=.=.=.r.r.. k r.r.r.. . X . . . . . . . . . . X ",
"X X . X               .       r.{ &.=.r.r.r.r.+.=.=.=.=.&.*.r.r.=.=.{ { r.h . . . . X . . . . . . . ",
"O X X                         r.{ =.=.=.! ~ ^ &.=.=.=.=.=.=.~ { =.=.@.{ r.o X . . . . . . . . . . . ",
"X . . .                       r.{ =.=.&.=.&.{ {  .{ {  .{ { &.&.=.&.#.{ r.. X - - X . . . . . . . . ",
"- X . .                       r.r.=.=.=.=.{ { { { { { { { { { =.=.$.=.r.r.. . : k X X . . . . . . . ",
"o . X .                         r.{ =.=.{ { { { { { { { { { { { %.=.=.r.r.X X o o o . o . . . . o . ",
"X .     ,.                        r.{ { A o.=.=.=.=.=.=.=.=.=.{ { =.r.r.. . . _ : . X . o . : . . . ",
"o . . .         o             .   r.{ { S o.=.=.=.=.=.=.=.=.=.{ { { r.. . . X . o . X . o : o . X X ",
"X   X                       P . r.7.=.-.%.=.&.X.&.=.=.=.O.o.=.O.D { { r.. . . : o o . X . o . o : X ",
"X X   .                   X .   r.7.=.&.0.=.X.Q / %.=.&.E ( 7.=.} { { r.. X . X . X . . . X o . o : ",
"6 . X                           r.7.&.&.0.=.W { A $.=.&.{ =.7.=.| { { r.X . . . . 1 . - . . . . k o ",
"O X X .                         7.{ { &.0.0.&.+.=.=.7.=.=.0.7.7.=.&.{ r.. . . . . . . . . . o . o . ",
"X X X l . .                   r.{ { { 7.0.0.{ w { =.=.%.{ w =.7...%.{ { r.. . . . . . . . . . : X X ",
"X . . X . X                   r.7.{ { 7.7.7.{ w { =.=.7.{ w =.7.{ { { { r.. . . X . . . . + . : k f ",
"o X X X     *                   r.{ { 7.7.7.{ w { 7.7.7.{ w =.7.{ { { r.. . . . . . . . . X X .   . ",
"X X X X X                       { { { &.7.7.7.:.t.q.7.7.[ ;.7.7.w.{ { r.. . . . . . . . . . . . k . ",
"X X X X X X             a     r.{ { { 7.7.7.7.7.7.7.7.7.7.7.7.7.7.{ { { r.. . : : X . . . : h c X 1 ",
"X X X X & .         U         r.{ { { 7.7.7.7.7.{ { { { e.7.7.{ { { 7.{ r.. o . . . . . . X + ; .   ",
"X X X X > &                   r.{ 7.{ &.&.7.7.7.{ 5 9 8 7.7.7.{ { 7.7.{ r.X . o . X . . . X X X o + ",
"X X X X .                     r.{ 7.7.{ &.&.7.7.{ 0 w q 7.7.{ { 7.7.7.{ r.. . . . . . h k . 1 . f   ",
"o X X X .                     r.5.{ 8.7.{ { 7.7.7.0 { 7.7.7.{ { 7.7.{ { r.. . . . o . . . . X . X . ",
"X X o X                         r.{ { 7.7.{ { 9.7.7.7.7.{ { { 7.7.7.7 r r.. o . . . . k : . + . X . ",
"X X X O o                       r.{ { 7.0.7.0.0.r.r.r.0.0.8.7.7.7.7.Z C r.. . X . X . X o o . . ' . ",
"X X X .                         r.r.{ 7.7.7.7.{ r.r.r.r.7.7.7.7.7.0.{ r.r.# X o . . X : . . . .   . ",
"X X X .                         r.r.{ 7.7.7.7.{ r.r.r.r.{ 7.6.7.7.{ { r.r.# . . X X X . X g . . . . ",
"X X X .   L                 i , r.r.{ { 7.7.{ { r.r.r.r.{ 7.7.7.7.{ { r.n t 1 f : o h . I f . .     ",
"- X   X                           r.{ { 7.{ { r.) V V r.{ { 7.7.7.{ { r.N z + - 1 + X - R   . .   - ",
"o X .                             r.{ { { 7.{ r.V V V r.{ { 7.7.{ { r.r.b 2 . f X f 3 X . .   . .   ",
"j i & L         *         *     V r.r.{ { { { r.V V V V r.{ 7.7.{ { r.r.$ .   . . X . . .   .   .   ",
"< . . ,     2.    >.          % V V r.r.r.r.r.V V V V V r.{ { 7.{ { r.t . .     .   . . .   d       ",
"X . .                         0 V V V V V M V V V V V V r.{ { { { r.r.. . .   .   . . . . . v       ",
"<.G X   ,         *           0 V T V V V V V V V V V V V r.r.r.r.r.. .           .       . .       ",
"O   X               H     *   0 V V V V V V V V V V V V V V B n # . .                 . . .     , K ",
"] 4 X .                     , @ z u x V V V V V V B B B B n 2 . . .   .           . d   .   H       ",
"X .                             @ 0 y y b b B B m n n n y . . . . . . H             .               ",
"X                 *                 % % 0 t u u u t 0 e @   . . .                 .                 ",
"o .                         *   , F   ,             ,.      &   X                           K       ",
"X X               &   K             * ,.      `     ,.        ` *     >               J         1.  ",
"O X                   3.            F         ,.      1.    J ,                 J                   "
};
