/* XPM */
static char *_fb16a9f2a494770c19f6687fe1ea8279wPvvA2tqAZMMDFJ[] = {
/* columns rows colors chars-per-pixel */
"50 50 140 2 ",
"   c black",
".  c #000600",
"X  c #0B0604",
"o  c #000B03",
"O  c #000D01",
"+  c #000D05",
"@  c #050F04",
"#  c #0B0B04",
"$  c #140F07",
"%  c #140B08",
"&  c #140F08",
"*  c #1B0F0A",
"=  c #001200",
"-  c #001600",
";  c #001206",
":  c #071206",
">  c #081306",
",  c #0A1507",
"<  c #001B00",
"1  c #031F00",
"2  c #051409",
"3  c #0D190A",
"4  c #1B130A",
"5  c #101C0C",
"6  c #121E11",
"7  c #21120C",
"8  c #26170F",
"9  c #2C170E",
"0  c #27180F",
"q  c #2A1910",
"w  c #2F1A12",
"e  c #2F1C12",
"r  c #311B13",
"t  c #331C13",
"y  c #361E14",
"u  c #391F16",
"i  c #002100",
"p  c #052700",
"a  c #062900",
"s  c #0F2D00",
"d  c #13210B",
"f  c #14250E",
"g  c #17280D",
"h  c #192A0F",
"j  c #132111",
"k  c #1B2B11",
"l  c #182D10",
"z  c #342214",
"x  c #3B2513",
"c  c #392016",
"v  c #392516",
"b  c #283C17",
"n  c #25351A",
"m  c #492916",
"M  c #40261B",
"N  c #472D1B",
"B  c #4F2A18",
"V  c #4E311C",
"C  c #60321D",
"Z  c #493A25",
"A  c #4B3D2C",
"S  c #4E3F2E",
"D  c #563025",
"F  c #583126",
"G  c #5D3227",
"H  c #5F3E25",
"J  c #743A23",
"K  c #2E471A",
"L  c #2C401E",
"P  c #2F481B",
"I  c #314A1A",
"U  c #304B1D",
"Y  c #33501D",
"T  c #385421",
"R  c #395823",
"E  c #3B5B25",
"W  c #405E25",
"Q  c #7D432B",
"!  c #7D452D",
"~  c #744C2D",
"^  c #69553C",
"/  c #7B5236",
"(  c #426227",
")  c #4E773D",
"_  c #5A793E",
"`  c #5C7B3E",
"'  c #677A54",
"]  c #824127",
"[  c #854429",
"{  c #81472E",
"}  c #82492F",
"|  c #8A492D",
" . c #854B30",
".. c #874C31",
"X. c #8A4E32",
"o. c #895735",
"O. c #8B5835",
"+. c #975437",
"@. c #9B5638",
"#. c #9D5739",
"$. c #975839",
"%. c #AA623D",
"&. c #82614B",
"*. c #927656",
"=. c #957A57",
"-. c #977C5A",
";. c #AC6945",
":. c #B2724B",
">. c #6D8D4B",
",. c #6D8E4D",
"<. c #72885C",
"1. c #739452",
"2. c #749552",
"3. c #779754",
"4. c #789855",
"5. c #AE8461",
"6. c #B28762",
"7. c #CA895D",
"8. c #C38B68",
"9. c #CF9464",
"0. c #D89767",
"q. c #D5AD7C",
"w. c #E7AB76",
"e. c #E7AD77",
"r. c #E9AD77",
"t. c #EDAD77",
"y. c #EFB17A",
"u. c #F3B37A",
"i. c #F2B47B",
"p. c #F5B47A",
"a. c #F0B37C",
"s. c #F4B37C",
"d. c #F2B47C",
"f. c #F5B57D",
"g. c #C3B188",
"h. c #CBBE93",
"j. c #F6B980",
"k. c #FFCA8E",
"l. c #F0DFAC",
"z. c #F4E5B1",
/* pixels */
"O           <                                               . O . . . . . . O . . . . . . . . . . O ",
"O                     i                                 .   . . . . . . . . . . . . . o . . . . . . ",
":                       O           O                     3 . .   . . . . . . . . . . . . . , . . . ",
";                                             4.    .     z.z.z.z.h . z.z.z.. . . . O . . . . o . . ",
"O                                           O           z.D D D D z.o D D D z.. . . , . . . O . . k ",
"o                                               o     z.D #.#.#.D z.k D D #.D z.. . . , . f T . O o ",
"o o                         p                 . . . . z.D #.#.D D z.z.z.] #.D z.O . , . . O , . o o ",
"o o o E                             i       a   <   z.z.] #.#.#.$.N N z.] #.D D z.o o o h   3 . . . ",
"o o . o                           1 1       i   . . z.D D #.#.#.%.H H z.z.#.D D z.. O . . . . . . . ",
"o o o o                       z.z.z.z.s   . . . . . z.] ] #.#.8.8.5.5.i.i.#.#.D z.. o . . . . . . o ",
"o o o                   z.z.z.] ] ] z.z.z.  . . . z.] ] ] f.f.i.i.i.i.i.i.i.q.D z.. . .   . . . . . ",
"o o o               O z.] ] ] f.f.] ] z.z.    . . z.] ] ] f.f.i.i.9 9 i.i.9 r.D z.. . . . . . . . o ",
"o o . o               z.] ] ] f.f.] ] z.z.. .   . z.] f.] f.f.i.i.9 o i.i.9 r.D z.z.o . . . . . . . ",
"+ o o                 z.] ] ] f.f.f.] z.z.. . . z.O.] f.f.f.f.p.p.f.f.i.i.j.f.k.] ] z.. . . . . . . ",
"o . . .             z.] ] ] f.f.f.f.f.] ] z.. . z.O.] f.f.f.f.y.y.e.e.r.y.r.u.^ ] ] z.. . . . . . . ",
": o . .           z.z.#.#.#.f.f.f.f.f.] ] z.  o z.o.] #.f.f.f.i.i.] ] 9 9 A S z.z.z.o . . . . . . . ",
"O . o .           z.] #.#.#.f.f.f.f.f.] ] z.. . z.O.] ] #.f.f.j.j.] ] ] ] z.z.z.O O . O . . . . O . ",
"o .     ,.        z.] #.#.j.j.j.f.f.f.] ] z.  y.z.O.] ] #.f.f.f.f.y.y.] ] z.z.( , . o . O . , . . . ",
"O . . .         O z.] #.#.j.j.f.f.f.f.] ] z.. y.z.V #.#.#.#.f.f.d.j.j.9.f.z.o . O . o . O , O . o o ",
"o   o             z.] #.#.j.f.f.f.f.f.] ] z.. y.z.m #.#./ #. .y.y.j.j.j.j.z.. , O O . o . O . O , o ",
"o o   .           z.] #.#.#.#.f.f.f.f.] ] z.. . z.C #.#.#.#.Z y.y.y.y.j.j.f.z.o . o . . . o O . O , ",
"6 . o             z.] #.#.#.#.f.f.f.f.z.z.z.z.z.~ #.#.#.#.#...y.y.y.j.j.y.y.z.. . 3 . : . . . . k O ",
"+ o o .           z.] ] #.#.#.f.f.f.f.z.z.z.z.] #.#.#.#.#.#.j.y.y.y.j.j.j.y.z.. . . . . . . O . O . ",
"o o o l . .         z.] ] ] #.#.f.f.6.z.z.z.Q #.#.#.#.#.#.#.j.j.j.j.j.j.j.j.z.. . . . . . . . , o o ",
"o . . o . o         z.] ] ] #.#.f.f.] z.z.f.#.#.#.#.#.#.#.j.j.j.j.j.j.j.j.j.z.z.o . . . . @ . , k f ",
"O o o o     -       z.z.] ] #.#.f.f.] f.j.#.#.+.#.#.#.#.j.j.j.j.j.j.j.j.j.j.#.z.z.. . . . o o .   . ",
"o o o o o           z.z.] ] #.#.f.f.] f.j.#.#.#.#.#.#.#.#.#.j.j.j.j.j.j.j.j.#.#.z.. . . . . . . k . ",
"o o o o o o           z.] ] #.#.f.f.f.#.j.#.#.#.@.X.! { ! } j.j.j.j.j.j.j.j.j.#.z.o . . . , h b o 3 ",
"o o o o = .         R z.] ] #.#.f.f.f.#.#.#.w.@.#.#.#.#.#.#.j.j.j.j.j.j.j.j.j.#.z.z.. . . o @ > .   ",
"o o o o < =           z.] ] #.#.f.f.#.f.#.;.| j.#.#.j.#.#.#.#.#.j.j.7.#.j.j.j.#.z.z.. . . o o o O @ ",
"o o o o .             h.J J #.#.f.f.#.f.@.a.] ] #.#.#.s.s.#.#.#.j.#.#.#.#.j.j.#.C ] z.h k . 3 . f   ",
"O o o o .             z.] ] #.#.f.] ] 0.#.  ] ] j.j.s.s.s.#.#.#.#.#.#.] j.j.j.#.B x z.. . . o . o . ",
"o o O o               z.] ] #.#.] ] [ f.#.  ] ] j.j.s.s.s.#.#.#.#.d.d.] j.j.] ] ] z.z.k , . @ . o . ",
"o o o + O             z.] ] z.z.] ] :.f.f.f.] ] s.s.s.s.s.#.#.f.#.d.] ] j.j.f.] ] z.. o O O . . ` . ",
"o o o .               X z.z.z.z.] ] t.f.f.f.] ] s.s.s.s.s.#.#.f.#.d.d.] ] j.j.] ] z.z., . . . .   . ",
"o o o .                 u u u z.] ] #.#.f.f.] ] z.z.z.z.f.z.#.f.d.d.d.] ] j.j.] ] ] z.. o g . . . . ",
"o o o .   Y           X w u v z.] ] #.#.f.f.] ] c c c u f.z.#.f.d.d.d.] ] ] f.j.j.] ] z.T f . .     ",
": o   o               % r r M l.] ] #.#.#.f.] ] c u c c ] z.#.f.d.d.d.] z.] f.j.j.j.] z.W   . .   : ",
"O o .                   r t g.&.F G #.#.-.=.*.] ] ] ] ] ] z.] ] ] ] ] ] z.] ] j.j.j.] z.. .   . .   ",
"j i = Y         -       r z z.F F G #.#.-.=.*.] ] ] ] ] ] z.] ] ] ] ] ] z.] ] j.j.j.] z..   .   .   ",
"2 . . 1     2.    >.    7 r z.z.z.z.z.z.z.z.z.z.z.z.z.z.z.z.z.z.z.z.z.z.z.] ] ] ] ] ] z..   d       ",
"o . .                     * * u u u u u y v c c c c c c c z c c y y y y 0 z.z.z.z.z.z.. . . n       ",
"<.L o   1         -             % ) 7 w y c c c c c c c c c c c w e w 4 #         .       . .       ",
"+   o               P     -       X       y c c c c e c c c q 8 8 $ .                 . . .     1 U ",
"' 5 o .                     1   =   =       & 4 # t q 4 8 q . . . .   .           . d   .   P       ",
"o .                                             . . . .   . . . . . . P             .               ",
"o                 -                               .   =     . . .                 .                 ",
"O .                         -   1 K   1             ,.      =   o                           U       ",
"o o               =   U             - ,.      _     ,.        _ -     <               I         1.  ",
"+ o                   3.            K         ,.      1.    I 1                 I                   "
};
