/* XPM */
static char *c7b600636e2c4c9687b1725831ba3c78BSxdvTIllgTNX1AF[] = {
/* columns rows colors chars-per-pixel */
"50 50 117 2 ",
"   c black",
".  c #000600",
"X  c #0B0604",
"o  c #000B03",
"O  c #000D01",
"+  c #000D05",
"@  c #050F04",
"#  c #0B0B04",
"$  c #0A0C04",
"%  c #140F07",
"&  c #140B08",
"*  c #140F08",
"=  c #1B0F0A",
"-  c #001200",
";  c #001600",
":  c #001206",
">  c #071206",
",  c #081306",
"<  c #0A1507",
"1  c #001B00",
"2  c #031F00",
"3  c #051409",
"4  c #0D190A",
"5  c #1B130A",
"6  c #101C0C",
"7  c #121E11",
"8  c #21120C",
"9  c #26170F",
"0  c #2C170E",
"q  c #27180F",
"w  c #2A1910",
"e  c #2F1A12",
"r  c #2F1C12",
"t  c #311B13",
"y  c #331C13",
"u  c #361E14",
"i  c #391F16",
"p  c #002100",
"a  c #052700",
"s  c #062900",
"d  c #0F2D00",
"f  c #13210B",
"g  c #14250E",
"h  c #17280D",
"j  c #192A0F",
"k  c #132111",
"l  c #1B2B11",
"z  c #182D10",
"x  c #342214",
"c  c #392016",
"v  c #392416",
"b  c #283C17",
"n  c #25351A",
"m  c #472E1B",
"M  c #4B3D2C",
"N  c #4E3F2E",
"B  c #563025",
"V  c #583126",
"C  c #5D3227",
"Z  c #5F3E25",
"A  c #743A23",
"S  c #2E471A",
"D  c #2C401E",
"F  c #2F481B",
"G  c #314A1A",
"H  c #304B1D",
"J  c #33501D",
"K  c #385421",
"L  c #3B5B25",
"P  c #405E25",
"I  c #69553C",
"U  c #426227",
"Y  c #4E773D",
"T  c #5A793E",
"R  c #5C7B3E",
"E  c #677A54",
"W  c #824127",
"Q  c #895735",
"!  c #8B5835",
"~  c #935537",
"^  c #975937",
"/  c #9D5739",
"(  c #975839",
")  c #AA623D",
"_  c #927656",
"`  c #957A57",
"'  c #977C5A",
"]  c #A77654",
"[  c #A97B58",
"{  c #6D8D4B",
"}  c #6D8E4D",
"|  c #72885C",
" . c #739452",
".. c #749552",
"X. c #779754",
"o. c #789855",
"O. c #AE8461",
"+. c #C38B68",
"@. c #CF9464",
"#. c #D5AD7C",
"$. c #E7AD77",
"%. c #E9AD77",
"&. c #EFB17A",
"*. c #F3B37A",
"=. c #F2B47B",
"-. c #F5B47A",
";. c #F4B37C",
":. c #F2B47C",
">. c #F3B67D",
",. c #F5B57D",
"<. c #B7AC85",
"1. c #CBBE93",
"2. c #F6B980",
"3. c #FFCA8E",
"4. c #EFE1AD",
"5. c #F1E2AF",
"6. c #F4E5B1",
/* pixels */
"O           1                                               . O . . . . . . O . . . . . . . . . . O ",
"O                     p                                 .   . . . . . . . . . . . . . o . . . . . . ",
">                       O           O                     4 . .   . . . . . . . . . . . . . < . . . ",
":                                             o.    .     . . . . j . O . . . . . . O . . . . o . . ",
"O                                           O           6.6.6.6.< . 6.6.6.. . . . . < . . . O . . l ",
"o                                               o     6.B B B B 6.g B B B 6.. . . . . < . g K . O o ",
"o o                         a                 . . . 6.B / / / B 6.. B B / B 6.. O . < . . O < . o o ",
"o o o L                             p       s   1 6.6.B / / B B 6.6.6.W / B 6.. . o o o j   4 . . . ",
"o o . o                           2 2       p   6.6.6.W / / / ( m m 6.W / B B 6.. . O . . . . . . . ",
"o o o o                               d   . . . 6.6.B B / / / ) Z Z 6.6./ B B 6.. . . . . . . . . o ",
"o o o                       6.6.6.6.        . . 6.6.W W / / +.+.O.O.=.=./ / B 6.o . . .   . . . . . ",
"o o o               O 6.6.6.W W W 6.6.6..     . 6.W W W ,.,.=.=.=.=.=.=.=.#.B 6.. . . . . . . . . o ",
"o o . o             6.W W W ,.,.W W 6.6.. . .   6.W W W ,.,.=.=.0 0 =.=.. %.B 6.. . o . . . . . . . ",
"+ o o               6.W W W ,.,.W W 6.6.. . . . 6.W ,.W ,.,.=.=.0 o =.=.0 %.B 6.6.. . . . . . . . . ",
"o . . .             6.W W W ,.,.,.W 6.6.. . . 6.! W ,.,.,.,.-.-.,.,.=.=.2.,.3.W W 6.. . . . . . . . ",
"> o . .           6.W W W ,.,.,.,.,.W W 6.>   6.! W ,.,.,.,.&.&.$.$.%.&.%.*.I W W 6.o . . . . . . . ",
"O . o .         6.6./ / / ,.,.,.,.,.W W 6.. . 6.Q W / ,.,.,.=.=.W W 0 0 M N 6.6.6.O . O . . . . O . ",
"o .     }       6.W / / / ,.,.,.,.,.W W 6..   6.! W W / ,.,.2.2.W W W W 6.6.6.U < . o . O . < . . . ",
"O . . .         6.W / / 2.2.2.,.,.,.W W 6.. . 6.! W W / ,.,.,.,.&.&.W W 6.6.o . O . o . O < O . o o ",
"o   o           <.W / / 2.2.,.,.,.,.W W 6.. 6.6.^ W W / / ,.,.>.2.2.@.,.6.. . < O O . o . O . O < o ",
"o o   .         <.W / / 2.,.,.,.,.,.W W 6.  6.6.W W ,.,./ / ,.2.2.2.2.2.6.o . o . o . . . o O . O < ",
"7 . o           <.W / / / / ,.,.,.,.W W 4.~ 6.6./ / / / / / ,.2.2.2.2.2.,.6.. . . 4 . > . . . . l O ",
"+ o o .         <.W / / / / ,.,.,.,.6.6.5.6.6.6./ / / / / 2.2.2.2.2.2.2.2.6.. . . . . . . . O . O . ",
"o o o z . .     <.W W / / / ,.,.,.,.6.5.6.6.6./ / / / / 2.2.2.2.2.2.2.2.2.6.6.. . . . . . . . < o o ",
"o . . o . o       6.W W W / / ,.,.[ 6.6.,./ / / / / / 2.2.2.2.2.2.2.2.2.2./ / 6.o . . . . @ . < l g ",
"O o o o     ;     6.] W W / / ,.,.W ,.,./ / / / / / / / / 2.2.2.2.2.2.,./ / / 6.. . . . . o o .   . ",
"o o o o o         6.6.W W / / ,.,.W ,.,./ / / / / / / / / / 2.2.2.2.2.2.2./ 6.6.. . . . . . . . l . ",
"o o o o o o         6.W W / / ,.,.,./ 2./ / / / / / / / / / 2.2.2.2.2.2.2./ ,.6.6.o . . . < j b o 4 ",
"o o o o - .         6.W W / / ,.,.,./ / / 2./ / / / / / / / / / 2.2.2./ 2.2./ 6.6.. . . . o @ , .   ",
"o o o o 1 -         6.W W / / ,.,./ ,./ / 2.W 2./ / 2./ / / / / 2.2./ / 2.2.W 6.6.o . . . o o o O @ ",
"o o o o .           1.A A / / ,.,./ ,./ / 2.W W / / / ;.;./ / / 2./ / / / / W W W 6.. j l . 4 . g   ",
"O o o o .           6.W W / / ,.W W ,./ /   W W 2.2.;.;.;./ / / / / / W 2.2.W W W 6.. . . . o . o . ",
"o o O o             6.W W / / W W W ,.,./   W W 2.2.;.;.;./ / / / >.>.W 2.2.W W W 6.$ l < . @ . o . ",
"o o o + O           6.W W 6.6.W W W ,.,.,.,.W W ;.;.;.;.;./ / ,./ >.W W 2.2.,.W W 6.. o O O . . R . ",
"o o o .               6.6.6.6.W W W ,.,.,.,.W W ;.;.;.;.;./ / ,./ >.>.W W 2.2.W W 6.6.< . . . .   . ",
"o o o .                 i i 6.W W W / / ,.,.W W 6.6.6.6.,.6./ ,.>.>.>.W W 2.2.W W W 6.. o h . . . . ",
"o o o .   J           X e i 6.W W W / / ,.,.W W c c c i ,.6./ ,.>.>.>.W W W ,.2.2.W W 6.K g . .     ",
"> o   o               & t t 6.W W W / / / ,.W W c i c c W 6./ ,.>.>.>.W 6.W ,.2.2.2.W 6.P   . .   > ",
"O o .                   t y 6.V V C / / ' ` _ W W W W W W 6.W W W W W W 6.W W 2.2.2.W 6.. .   . .   ",
"k p - J         ;       t x 6.V V C / / ' ` _ W W W W W W 6.W W W W W W 6.W W 2.2.2.W 6..   .   .   ",
"3 . . 2     ..    {     8 t 6.6.6.6.6.6.6.6.6.6.6.6.6.6.6.6.6.6.6.6.6.6.6.W W W W W W 6..   f       ",
"o . .                     = = i i i i i u v c c c c c c c x c c u u u u q 6.6.6.6.6.6.. . . n       ",
"| D o   2         ;             & Y 8 e u c c c c c c c c c c c e r e 5 #         .       . .       ",
"+   o               F     ;       X       u c c c c r c c c w 9 9 % .                 . . .     2 H ",
"E 6 o .                     2   -   -       * 5 # y w 5 9 w . . . .   .           . f   .   F       ",
"o .                                             . . . .   . . . . . . F             .               ",
"o                 ;                               .   -     . . .                 .                 ",
"O .                         ;   2 S   2             }       -   o                           H       ",
"o o               -   H             ; }       T     }         T ;     1               G          .  ",
"+ o                   X.            S         }        .    G 2                 G                   "
};
