/* XPM */
static char *_337cf54e29e46189a3e8e2d618e72542Mxh9OxPcxzqhjps[] = {
/* columns rows colors chars-per-pixel */
"50 50 140 2 ",
"   c black",
".  c #060302",
"X  c #000600",
"o  c #0B0604",
"O  c #000B03",
"+  c #060802",
"@  c #000D01",
"#  c #000D05",
"$  c #050F04",
"%  c #0B0904",
"&  c #0A0C04",
"*  c #140F07",
"=  c #140B08",
"-  c #140D08",
";  c #1B0F0A",
":  c #001200",
">  c #001600",
",  c #001206",
"<  c #071206",
"1  c #081306",
"2  c #091406",
"3  c #001B00",
"4  c #001C00",
"5  c #051409",
"6  c #0D190A",
"7  c #1B130A",
"8  c #101D09",
"9  c #101C0C",
"0  c #121E11",
"q  c #21110B",
"w  c #21120C",
"e  c #21140C",
"r  c #26170F",
"t  c #2C170E",
"y  c #2A1710",
"u  c #2A1910",
"i  c #2F1A12",
"p  c #2F1C12",
"a  c #311B13",
"s  c #331C13",
"d  c #341D14",
"f  c #391F16",
"g  c #002100",
"h  c #062900",
"j  c #13210B",
"k  c #14250E",
"l  c #17280D",
"z  c #192A0F",
"x  c #132111",
"c  c #1B2B11",
"v  c #182D10",
"b  c #362014",
"n  c #392016",
"m  c #392416",
"M  c #283C17",
"N  c #25351A",
"B  c #572B1A",
"V  c #2E471A",
"C  c #2C401E",
"Z  c #2F481B",
"A  c #314A1A",
"S  c #304B1D",
"D  c #33501D",
"F  c #385421",
"G  c #395823",
"H  c #3B5B25",
"J  c #405E25",
"K  c #5C473C",
"L  c #584938",
"P  c #4D773D",
"I  c #5A793E",
"U  c #5C7B3E",
"Y  c #677A54",
"T  c #824127",
"R  c #8F4E31",
"E  c #9A5A39",
"W  c #A05839",
"Q  c #A35B3A",
"!  c #A55B39",
"~  c #A05F3D",
"^  c #A65E3D",
"/  c #A85E3B",
"(  c #A85E3C",
")  c #8F6049",
"_  c #8F7351",
"`  c #AC6541",
"'  c #A56944",
"]  c #AE6D48",
"[  c #B56A46",
"{  c #B66A49",
"}  c #B46E48",
"|  c #BB7C50",
" . c #6D8D4B",
".. c #6D8E4D",
"X. c #72885C",
"o. c #739452",
"O. c #749552",
"+. c #779754",
"@. c #789855",
"#. c #A3835D",
"$. c #A4876D",
"%. c #B98F6A",
"&. c #B1906B",
"*. c #BD9976",
"=. c #C88358",
"-. c #C88D58",
";. c #CD885C",
":. c #D18D60",
">. c #DB8E66",
",. c #C89A6E",
"<. c #D59263",
"1. c #D6916A",
"2. c #DC9968",
"3. c #CD9D70",
"4. c #E09B70",
"5. c #D1A274",
"6. c #D5A476",
"7. c #DDA370",
"8. c #DBA376",
"9. c #DCA374",
"0. c #DEA776",
"q. c #E3A774",
"w. c #E0A877",
"e. c #E6AA75",
"r. c #EBAD77",
"t. c #E9A178",
"y. c #E7AC78",
"u. c #EAAD7A",
"i. c #EFAF79",
"p. c #EFB07A",
"a. c #F0B079",
"s. c #F5B37B",
"d. c #F3B27F",
"f. c #F4B37C",
"g. c #F5B47C",
"h. c #CCB295",
"j. c #E9B481",
"k. c #EDB98B",
"l. c #E4BD9A",
"z. c #F4E5B1",
/* pixels */
"@           3                                               X @ X X X X X X @ X X X X X X X X X X @ ",
"@                     g                                 X   X X X X X X X X X X X X X O X X X X X X ",
"<                       @           @                     6 X X   X X X X X X X X X X X X X 2 X X X ",
",                                             @.    X     X X X X z X @ X X X X X X @ X X X X O X X ",
"@                                           @           X X   @ 2 X O O X X X X X X 2 X X X @ X X c ",
"O                                               O       @ X 2 $ @ k c c X X X X X X X 2 X k F X @ O ",
"O O                       z.z.      z.z.      X X X X X O O X X O X @ X X X X X @ X 2 X X @ 2 X O O ",
"O O O H                 z.T T z.  z.Q z.z.  h   3   X X O X X X X O X O X X O X X O O O z   6 X X X ",
"O O X O                 z.T Q z.z.T Q T T z.g   X X X X O X X X O O @ X X X X X X X @ X X X X X X X ",
"O O O O               z.z.T Q z.z.T Q T T z.X X X X X < X $ X X X c X X O X X X X X X X X X X X X O ",
"O O O               z.T T Q Q Q T T T T T z.X X X X X M X X O X c @ X X O X X X O X X X   X X X X X ",
"O O O             z.z.T T Q Q Q T T T T T z.  X X X X X X X X X c X X z.z.z.z.z.X X X X X X X X X O ",
"O O X O           z.T Q Q ,.3._ T T T T T z.X   X X X X X X X X X O z.z.T T T T z.z.O X X X X X X X ",
"# O O           z.z.T &.&.6.*.h.>.T T T T T z.X X X X X X   O $ # z.z.T T f.f.T T z.z.X X X X X X X ",
"O X X X         z.T T s.s.B t l.%.! T T T T z.X X X X X X X X O z.z.T f.f.f.f.f.T T z.X X X X X X X ",
"< O X X       z.z.T g.g.g.t t k.d.{ Q T T T z.z.X X X X X X X X z.T T f.f.f.f.f.f.T T z.X X X X X X ",
"@ X O X     z.q T a.s.a.a.f.d.f.a.[ Q T T T T z.X X X X X X X X z.T f.f.f.f.f.f.f.T T z.X X X X @ X ",
"O X     ..  z.T T #.5.3.3.8.9.r.i.4.( T T T T T z.X X X X X X X z.T f.f.f.f.f.f.f.T z.z.@ X 2 X X X ",
"@ X X X       z.z.$.L K K f.f.f.f.i.Q Q Q T T T z.z.z.X X X X X z.T T f.f.f.f.f.T T z.X @ 2 @ X O O ",
"O   O           z.z.z.T T f.f.f.f.j.` Q Q T T T T T z.z.z.X X z.z.T T f.f.f.2.~ T z.z.O X @ X @ 2 O ",
"O O   X           z.z.T T s.f.f.f.j.` Q Q T T T T T z.z.z.z.z.z.z.T T f.f.f.2.T ' z.z.X X O @ X @ 2 ",
"0 X O                 z.z.s.f.u.f.a.i.` ` Q T T T T T T T T T T T T T f.f.f.f.T T z.X < X X X X c @ ",
"# O O X               z.z.s.f.i.q.7.a.u.u.Q Q ! T T T T T T T T T T T T f.f.| ) T z.X X X X @ X @ X ",
"O O O v X X             z.f.y.e.a.g.d.f.f.:.Q Q Q T T T T T T T T T T T Q Q ` R z.z.X X X X X 2 O O ",
"O X X O X O               z.d.d.d.f.d.f.f.2.Q Q Q Q E Q Q T T Q Q Q T T T T Q ] z.X X X X $ X 2 c k ",
"@ O O O     >             z.T d.f.f.d.i.p.=.Q Q Q Q Q Q Q Q Q Q Q Q Q T T T R T z.X X X X O O X   X ",
"O O O O O               z.T T d.a.w.i.<.<.Q Q Q Q f.f./ / Q Q Q Q Q -.` T T T T z.z.X X X X X X c X ",
"O O O O O O             z.T d.d.f.` } } } Q Q Q f.f.f.f.d.d.f.f.Q Q E ;.} } T z.T z.X X X 2 z M O 6 ",
"O O O O : X         G   z.T d.0.f.` } } } Q Q Q f.f.f.f.d.f.f.d.Q Q E ;.} } f.f.T z.X X X O $ 1 X   ",
"O O O O 3 :             z.T d.d.f.Q Q Q Q Q Q Q 1.T f.f.f.f.f.d.f.f.T R ` ` f.f.T z.X X X O O O @ $ ",
"O O O O X             z.T T d.d.f.T Q Q Q ^ f.f.t.T f.f.f.f.f.f.f.f.T T T T f.f.T z.X z c X 6 X k   ",
"@ O O O X             z.T T d.d.f.T z.z.T T f.f.f.T T T T T T z.T T f.f.T T f.f.T z.X X X X O X O X ",
"O O @ O               z.T d.d.d.T T z.f z.z.f.f.f.T z.z.z.z.z.z.T f.f.T z.T f.f.T z.X c 2 X $ X O X ",
"O O O # @             z.T d.d.d.T z.z.f z.z.f.f.f.T z.n n n n z.T f.T T z.T f.f.T z.& O @ @ X X U X ",
"O O O X               z.T d.d.d.T z.f f z.z.f.f.T z.n n n n n z.T f.T z.z.T f.f.T z.O 2 X X X X   X ",
"O O O X           o a z.T d.d.d.z.z.m f f z.f.f.T z.n n n n z.T f.f.T z.z.T f.f.T z.b X O l X X X X ",
"O O O X   D         f z.T a.s.T z.f f f n z.f.f.T z.n f n z.T f.f.f.T z.z.T f.f.T z.m X F k X X     ",
"< O   O           o i z.T a.s.T z.f f f f z.f.f.T z.n n n z.T f.f.f.T z.n z.T f.T z.s < J   X X   < ",
"@ O X             = a a z.T T z.f f f m f z.T f.T z.n n n z.T T T T T z.n z.T T z.z.8 O X X   X X   ",
"x g : D         >   s s f z.z.f f f f f f z.T T z.n n n n n z.z.z.z.z.n n n z.z.z.O X X X   X   X   ",
"5 X X 4     O.     .a d f f f f f f f f f f z.z.n n n n n n n n n n n n n n n n X   X X X   j X     ",
"O X X               w a n f f f f f f f f m n n n n n n n n n n n n n n n n n +   X X X X X N       ",
"X.C O   4         >   ; ; f f f f P d f f n n n n n n n n n n n n n n u e -       X       X X       ",
"#   O               Z     > = d w i d f f n n n n n n n n n n i p i 7 %               X X X     4 S ",
"Y 9 O X                     4 o :   : w d n n n n p n n n u r r * X   X           X j   X   Z       ",
"O X                                       = 7 o s u 7 r y X X X X X X Z             X               ",
"O                 >                               X . :     X X X                 X                 ",
"@ X                         >   4 V   4             ..      :   O                           S       ",
"O O               :   S             > ..      I     ..        I >     3               A         o.  ",
"# O                   +.            V         ..      o.    A 4                 A                   "
};
