/* XPM */
static char *_a5b6c0f59e345eb91c9d6f515f23480VLF5ZimyKfv8k9kL[] = {
/* columns rows colors chars-per-pixel */
"50 50 117 2 ",
"   c #000300",
".  c #0B0604",
"X  c #000B02",
"o  c #0B0904",
"O  c #140F07",
"+  c #140C08",
"@  c #1B0F0A",
"#  c #011302",
"$  c #0A1507",
"%  c #001B00",
"&  c #051409",
"*  c #0F1B09",
"=  c #1B120A",
"-  c #101C0C",
";  c #121E11",
":  c #23140D",
">  c #2C170E",
",  c #2A1710",
"<  c #2D1A11",
"1  c #331C14",
"2  c #391F16",
"3  c #002200",
"4  c #062900",
"5  c #15240D",
"6  c #17280D",
"7  c #192A0F",
"8  c #132111",
"9  c #1B2B11",
"0  c #392016",
"q  c #3D2618",
"w  c #283C17",
"e  c #25351A",
"r  c #41281C",
"t  c #572B1A",
"y  c #4A3224",
"u  c #553D2D",
"i  c #7D3F25",
"p  c #2F481B",
"a  c #314B1C",
"s  c #33501D",
"d  c #385421",
"f  c #3A5A24",
"g  c #58412F",
"h  c #5C473C",
"j  c #584938",
"k  c #774630",
"l  c #7A4A30",
"z  c #4D773D",
"x  c #5B7A3E",
"c  c #677A54",
"v  c #824127",
"b  c #88452A",
"n  c #8B4A2E",
"m  c #8F4E31",
"M  c #8E5639",
"N  c #945234",
"B  c #9F5737",
"V  c #9D5837",
"C  c #9A5939",
"Z  c #A25939",
"A  c #A85E3C",
"S  c #A2613F",
"D  c #8F7351",
"F  c #AC6541",
"G  c #AE6D48",
"H  c #B56A46",
"J  c #B46D48",
"K  c #B4734C",
"L  c #BE7D55",
"P  c #6D8D4D",
"I  c #72885C",
"U  c #749553",
"Y  c #789855",
"T  c #A3835D",
"R  c #9C8767",
"E  c #A4876D",
"W  c #BF8B60",
"Q  c #B98F69",
"!  c #B1906B",
"~  c #BE9973",
"^  c #C38258",
"/  c #C88358",
"(  c #CB8A5B",
")  c #C48E62",
"_  c #D18D60",
"`  c #DB8E66",
"'  c #CC9366",
"]  c #C89A6E",
"[  c #D59364",
"{  c #D6916A",
"}  c #DC9A69",
"|  c #CE9E72",
" . c #E09B70",
".. c #D3A375",
"X. c #DDA574",
"o. c #DDA979",
"O. c #E5A572",
"+. c #E6A975",
"@. c #EBAD77",
"#. c #E7AD79",
"$. c #EDAE79",
"%. c #EFB07B",
"&. c #F4B37C",
"*. c #CEAF84",
"=. c #CCBA8F",
"-. c #CCB295",
";. c #E9B481",
":. c #EDB98B",
">. c #E4BD9A",
",. c #DBC293",
"<. c #DCCA9C",
"1. c #D8CC9D",
"2. c #F4C892",
"3. c #E8D8A6",
"4. c #F4DDA9",
"5. c #F4E3AF",
"6. c #F4E5B1",
/* pixels */
"X           %                                                 X             X X X                 X ",
"X                     3                                                           X   X             ",
"$                       X           X                     *       X           X       X     $ X X   ",
"#                                             Y                   7   X X     X     X       X X X X ",
"X                                           X                 X $   X X         X X $       X X X 9 ",
"X                                               X       X   $ $ X 5 9 9         X   X $   5 d X X X ",
"X X                       6.6.      6.6.                X X X X X   X X         X   $ X   X $   X X ",
"X X X f                 6.v v 6.  6.Z 6.6.  4   %       X   X     X X X X X X X   X X X 7   *       ",
"X X   X                 6.v Z 6.6.v Z v v 6.3       X   X       X X X               X X             ",
"X X X X               6.6.v Z 6.6.v Z v v 6.          & X $   6.6.6.6.6.6.  X X   X X       X     X ",
"X X X               6.v v Z Z Z v v v v v 6.          w     6.v v v v v v 6.    X     X             ",
"X X X             6.6.v v Z Z Z v v v v v 6.          X   6.6.v v &.&.&.v v v 6.X                 X ",
"X X   X           6.v Z Z ] | D v v v v v 6.              X 6.6.v &.&.&.&.v v v 6.  X               ",
"X X X           6.6.v ! ! ..~ -.` v v v v v 6.X             6.6.v v &.&.&.v v v v 6.6.    X         ",
"X               6.v v &.&.t > >.Q Z v v v v 6.  X             6.v v v &.&.&.&.v v v 6.X X X X X X   ",
"$ X           6.6.v &.&.&.> > :.&.H Z v v v 6.6.        X X   6.6.v v &.&.&.&.v v v v 6.X   X X X   ",
"X   X       6.: v &.&.&.&.&.&.&.&.H Z v v v v 6.              6.v v &.&.&.&.&.&.v v v 6.        X   ",
"X       P   6.v v T ..| | X.X.@.$. .A v v v v v 6.            6.v v &.&.&.&.&.&.v v 6.6.X   $       ",
"X             6.6.E j h h &.&.&.&.$.Z Z Z v v v 6.6.6.          6.v v &.&.&.&.&.v v 6.  X $ X   X X ",
"X   X             6.6.v v &.&.&.&.;.F Z Z v v v v v 6.6.X       6.v v &.&.&.} Z v v 6.X   X   X $ X ",
"X X                 6.v v &.&.&.&.;.F Z Z v v v v v 6.6.6.6.6.6.6.v v &.&.&.} v v 6.6.    X X X X $ ",
";   X                 6.6.&.&.$.&.&.$.F F Z v v v v v v v v v v v v v &.&.&.v v v 6.  $     X   9 X ",
"X X X                   6.&.&.$.O.X.&.$.$.Z Z Z v v v v v v v v v v v v &.&.v v v 6.      X X X X X ",
"X X X 9                 6.&.#.+.&.&.&.&.&._ Z Z Z v v v v v v v v v v v Z Z F m 6.6.    X X X $ X X ",
"X     X   X               6.&.&.&.&.&.&.&.} Z Z Z Z Z Z Z v v Z Z Z v v v v Z G &.6.      $   $ 9 5 ",
"X X X X     #             6.o.%.&.&.&.%.%./ Z Z Z Z Z Z Z Z Z Z Z Z Z v v v m v 6.        X X       ",
"X X X X X               6.&.&.#.&.&.&.&.[ Z Z Z Z Z Z Z Z Z Z Z Z Z ( F v v v &.6.X X X         9   ",
"X X X X X X             6.v &.X.&.&.&.&.&.Z Z Z Z Z Z Z Z Z Z Z Z Z C ( J J v v 6.6.      $ 7 w X * ",
"X X X X #           f   6.v &.X.&.&.&.&.&.Z Z Z &.Z Z Z Z Z Z Z Z Z C ( J J $.i l 1.      X X $     ",
"X X X X # #             6.Q K K K K &.&.O.Z Z Z { v &.&.Z Z B B F O.b N V [ L v ~ 6.X X   X X X X X ",
"X X X X                 6.,.C v &.&.&.v Z v n N Z *.S 4.4.5.6.v v &.&.6.i &.&.v 6.6.  7 9 X *   5   ",
"X X X X                 6.v W W ) ' N N ^ +.' ' M k 3.6.v v v 6.v &.&.v v &.&.&.v 6.        X   X   ",
"X X X X                 v &.&.&.&.2.R &.&.&.&.v v <.g u y y r 6.v v v 6.6.v &.&.&.v 6.9 $   X   X   ",
"X X X X X               v &.&.v 6.&.=.&.&.&.&.v 6.0 2 0 0 0 6.&.v v v 0 0 v v &.&.v 6.X X X     x   ",
"X X X                 6.&.&.v v 6.6.v &.&.&.v v 0 0 0 0 0 0 6.&.v v 6.0 0 0 6.v &.&.v 6.            ",
"X X X             . 6.v &.v v 6.2 2 v &.&.v v 6.0 0 0 0 0 6.&.v v 6.6.0 0 0 6.v v &.&.v 6.6         ",
"X X X     s         6.&.v v v 6.2 v &.&.v v 6.2 0 0 0 2 6.&.&.v v 6.0 0 0 0 0 6.6.v v v 6.5         ",
"$ X   X           . 6.6.v 6.6.2 v &.&.&.v 6.2 2 0 2 0 0 &.&.v v 6.6.0 0 0 0 0 0 6.&.v v 6.        $ ",
"X X               + 1 1 6.2 2 2 v &.&.v 6.2 2 0 0 0 0 6.&.v v 6.6.0 0 0 0 0 0 q 0 v v 6.6.          ",
"8 3 # s         #   1 1 2 0 2 6.&.&.v 6.2 2 0 0 0 0 0 0 6.6.0 0 0 0 2 0 0 0 0 0 0 X 6.              ",
"&     %     U     P 1 1 2 2 2 6.v v 6.2 2 2 0 0 0 0 0 0 0 0 0 0 0 0 0 0 2 2 2 2             5       ",
"X                   : 1 2 2 2 2 6.6.2 2 2 0 0 0 0 0 0 0 0 0 0 0 0 0 0 0 2 2 2 .             e       ",
"I w X   %         #   @ @ 2 2 2 2 z 1 2 2 0 0 0 0 0 0 0 0 0 0 0 0 0 0 , : +                         ",
"X   X               p     # + 1 : < 1 2 2 0 0 0 0 0 0 0 0 0 0 < < < = o                         % a ",
"c - X                       % . #   # : 1 0 0 0 0 < 0 0 0 , : : O                   5       p       ",
"X                                         + = . 1 , = : ,             p                             ",
"X                 #                                 . #                                             ",
"X                           #   % p   %             P       X   X                           a       ",
"X X               #   a             # P       x     P         x #     %               a         U   ",
"X X                   Y             p         P       U     a %                 a                   "
};
