/* XPM */
static char *c74779c60b264dd098afe330acdc97bc6FaD0txrELoIbLHK[] = {
/* columns rows colors chars-per-pixel */
"50 50 142 2 ",
"   c black",
".  c #000600",
"X  c #060602",
"o  c #0B0604",
"O  c #000B03",
"+  c #060802",
"@  c #000D01",
"#  c #000D05",
"$  c #050F04",
"%  c #0B0B04",
"&  c #0A0C04",
"*  c #140F07",
"=  c #140B08",
"-  c #140F08",
";  c #1B0F0A",
":  c #001200",
">  c #001600",
",  c #001206",
"<  c #071206",
"1  c #081306",
"2  c #091406",
"3  c #001B00",
"4  c #031F00",
"5  c #051409",
"6  c #0D190A",
"7  c #141007",
"8  c #1B130A",
"9  c #101D09",
"0  c #101C0C",
"q  c #121E11",
"w  c #21110B",
"e  c #21120C",
"r  c #21150C",
"t  c #26170E",
"y  c #2C170E",
"u  c #2A1910",
"i  c #2D1B11",
"p  c #2F1C12",
"a  c #311B13",
"s  c #331D13",
"d  c #331F14",
"f  c #371E15",
"g  c #391F16",
"h  c #002100",
"j  c #052700",
"k  c #062900",
"l  c #0F2D00",
"z  c #13210B",
"x  c #14250E",
"c  c #17280D",
"v  c #192A0F",
"b  c #132111",
"n  c #1B2B11",
"m  c #182D10",
"M  c #392316",
"N  c #392416",
"B  c #3D2618",
"V  c #283C17",
"C  c #25351A",
"Z  c #40291B",
"A  c #572D1A",
"S  c #2E471A",
"D  c #2C401E",
"F  c #2F481B",
"G  c #314A1A",
"H  c #304B1D",
"J  c #33501D",
"K  c #385421",
"L  c #3B5B25",
"P  c #405E25",
"I  c #5C473C",
"U  c #584938",
"Y  c #4E773D",
"T  c #597B3F",
"R  c #5C7B3E",
"E  c #677A54",
"W  c #824127",
"Q  c #8F4E31",
"!  c #9A5A39",
"~  c #A05839",
"^  c #A35B3A",
"/  c #A55B39",
"(  c #A05F3D",
")  c #A65E3D",
"_  c #A85E3B",
"`  c #A85E3C",
"'  c #8F6049",
"]  c #8F7351",
"[  c #AC6541",
"{  c #A56944",
"}  c #AE6D48",
"|  c #B56A46",
" . c #B66A49",
".. c #B46E48",
"X. c #BB7C50",
"o. c #6D8E4D",
"O. c #72885C",
"+. c #739452",
"@. c #749552",
"#. c #779754",
"$. c #789855",
"%. c #A3835D",
"&. c #A4876D",
"*. c #B98F6A",
"=. c #B1906B",
"-. c #BD9976",
";. c #C88358",
":. c #C88D58",
">. c #CD885C",
",. c #D18D60",
"<. c #DB8E66",
"1. c #C89A6E",
"2. c #D59263",
"3. c #D6916A",
"4. c #DC9968",
"5. c #CF9F73",
"6. c #E09B70",
"7. c #D1A274",
"8. c #D5A476",
"9. c #DDA370",
"0. c #DBA376",
"q. c #DCA374",
"w. c #DEA776",
"e. c #E3A774",
"r. c #E0A877",
"t. c #E6AA75",
"y. c #EBAD77",
"u. c #E9A178",
"i. c #E7AC78",
"p. c #EAAD7A",
"a. c #EEAF79",
"s. c #EFB07A",
"d. c #F0B07A",
"f. c #F5B37B",
"g. c #F3B27C",
"h. c #F4B37C",
"j. c #F5B47C",
"k. c #CCB295",
"l. c #E9B481",
"z. c #EDB98B",
"x. c #E4BD9A",
"c. c #F4E5B1",
/* pixels */
"@           3                                               . @ . . . . . . @ . . . . . . . . . . @ ",
"@                     h                                 .   . . . . . . . . . . . . . O . . . . . . ",
"<                       @           @                     6 . .   . . . . . . . . . . . . . 2 . . . ",
",                                             $.    .     . . . . v . @ . . . . . . @ . . . . O . . ",
"@                                           @           . .   @ 2 . O O . . . . . . 2 . . . @ . . n ",
"O                                               O       @ . 2 $ @ x n n . . . O . . . 2 . x K . @ O ",
"O O                         j                 . . . . . O O . c.c.. @ . c.c.O . @ . 2 . . @ 2 . O O ",
"O O O L                             h       k   3   . . O . c.c.~ c.. c.W W c.O . O O O v   6 . . . ",
"O O . O                           4 4       h   . . . . O c.W W ~ W c.c.~ W c.. . . @ . . . . . . . ",
"O O O O                               l   . . . . . . < . c.W W ~ W c.c.~ W c.c.. . . . . . . . . O ",
"O O O                       h     h         . . . . . V . c.W W W W W ~ ~ ~ W W c.. . .   . . . . . ",
"O O O               @ c.c.c.c.c.      . .     . . . . . . c.W W W W W ~ ~ ~ W W c.c.. . . . . . . O ",
"O O . O           c.c.W W W W c.c.      . . .   . . . . . c.W W W W W ] 5.1.~ ~ W c.O . . . . . . . ",
"# O O           c.c.W W h.h.W W c.c.. . . . . . . . . . c.W W W W W <.k.-.8.=.=.W c.c.. . . . . . . ",
"O . . .         c.W W h.h.h.h.h.W c.c.. . . . . . . . . c.W W W W / *.x.y A f.f.W W c.. . . . . . . ",
"< O . .       c.W W h.h.h.h.h.h.W W c..   <   O . . . c.c.W W W ~  .g.z.y y j.j.j.W c.c.. . . . . . ",
"@ . O .       c.W W h.h.h.h.h.h.h.W c.  . . . . . . . c.W W W W ~ | d.h.g.h.d.d.f.d.W w c.. . . @ . ",
"O .     o.    c.c.W h.h.h.h.h.h.h.W c.  . .   . . . c.W W W W W ` 6.a.y.q.0.5.5.7.%.W W c.. 2 . . . ",
"@ . . .         c.W W h.h.h.h.h.W W c.. . . . . c.c.c.W W W ~ ~ ~ a.h.h.h.h.I I U &.c.c.@ 2 @ . O O ",
"O   O           c.c.W ( 4.h.h.h.W W c.c.. . c.c.c.W W W W W ~ ~ [ l.h.h.h.h.W W c.c.c.O . @ . @ 2 O ",
"O O   .         c.c.{ W 4.h.h.h.W W c.c.c.c.c.c.c.W W W W W ~ ~ [ l.h.h.h.h.W W c.c.. . . O @ . @ 2 ",
"q . O             c.W W h.h.h.h.W W W W W W W W W W W W W ~ [ [ a.d.h.p.h.h.c.c.. 6 . < . . . . n @ ",
"# O O .           c.W ' X.h.h.W W W W W W W W W W W W / ~ ~ p.p.d.9.e.a.h.h.c.c.. . . . . . @ . @ . ",
"O O O m . .       c.c.Q [ ~ ~ W W W W W W W W W W W ~ ~ ~ ,.h.h.g.j.d.t.i.h.c.. . . . . . . . 2 O O ",
"O . . O . O         c.} ~ W W W W ~ ~ ~ W W ~ ~ ~ ~ ~ ~ ~ 4.h.h.g.h.g.g.g.c.. . O . . . . $ . 2 n x ",
"@ O O O     >       c.W Q W W W ~ ~ ~ ~ ~ ~ ~ ~ ~ ~ ~ ~ ~ ;.s.s.g.h.h.g.W c.. . . . . . . O O .   . ",
"O O O O O         c.c.W W W W [ :.~ ~ ~ ~ ~ _ _ h.h.~ ~ ~ ~ 2.2.s.r.d.g.W W c.. . . . . . . . . n . ",
"O O O O O O       c.W c.W ....>.! ~ ~ h.h.h.h.h.h.h.h.~ ~ ~ ......[ h.g.g.W c.2 2 O . . . 2 v V O 6 ",
"O O O O : .       c.W h.h.....>.! ~ ~ h.h.h.h.h.h.h.j.~ ~ ~ ......[ h.w.g.W c.. . . . . . O $ 1 .   ",
"O O O O 3 :       c.W h.h.[ [ Q W h.h.h.h.h.h.h.h.W 3./ ~ ~ ~ ~ ~ ~ h.g.g.W c.@ . O . . . O O O @ $ ",
"O O O O .         c.W h.h.W W W W j.h.h.h.h.h.h.h.W u.h.j.) ~ ~ ~ W h.g.g.W W c.. . . v n . 6 . x   ",
"@ O O O .         c.W h.h.W W h.h.W W c.W W W W W W h.j.j.W W c.c.W h.g.g.W W c.. @ . . . . O . O . ",
"O O @ O           c.W h.h.W c.W h.h.W c.c.c.c.c.c.W h.h.h.c.c.g c.W W g.g.g.W c.7 & . n 2 . $ . O . ",
"O O O # @         c.W h.h.W c.W W h.W c.g g g M c.W h.h.h.c.c.g c.c.W g.g.g.W c.i O . O @ @ . . R . ",
"O O O .         o c.W h.h.W c.c.W h.W c.g g g M M c.W h.h.c.c.M M c.W g.g.g.W c.f f O 2 . . . .   . ",
"O O O .           c.W h.h.W c.c.W h.h.W c.g M g M c.W h.h.c.M M M c.c.g.g.g.W c.s d O . O c . . . . ",
"O O O .   J     o c.W h.h.W c.c.W h.h.h.W c.g g M c.W h.h.c.M M M M c.W h.g.W c.M d v . K x . .     ",
"< O   O         = c.W h.W c.g c.W h.h.h.W c.g g M c.W h.h.c.M M M M c.W h.g.W c.N $ O < P   . .   < ",
"@ O .             c.c.W W c.g c.W W W W W c.g g M c.W h.W c.M Z M M M c.W W c.B O x 9 O . .   . .   ",
"b h : J         > a c.c.c.M g g c.c.c.c.c.g M M M M c.W W c.M M M M g g c.c.M . . O . . .   .   .   ",
"5 . . 4     @.    T a g g g g g g g g g g g M M g g g c.c.M M M M M M M M M X   .   . . .   z       ",
"O . .               ; ; M g g g g f g g g N M M g g g g M M M M M M u r - .   .   . . . . . C       ",
"O.D O   4         >       = f e i Y g g g M M M g M g g M M i p i 8 % .           .       . .       ",
"#   O               F     > o       e f g M M M p M M M u t t * . . .                 . . .     4 H ",
"E 0 O .                     4   :   :   = 8 % s u 8 t u . . . . . .   .           . z   .   F       ",
"O .                                             . + . .   . . . . . . S             .               ",
"O                 >                               .   :     . . .                 .                 ",
"@ .                         >   4 S   4             o.      :   O                           H       ",
"O O               :   H             > o.      T     o.        T >     3               G         +.  ",
"# O                   #.            S         o.      +.    G 4                 G                   "
};
