/* XPM */
static char *_a41da65ed1c433ae2237c67e9ab0274ZctEvF5LCNZbuRAd[] = {
/* columns rows colors chars-per-pixel */
"50 50 117 2 ",
"   c #000300",
".  c #0B0604",
"X  c #000B02",
"o  c #0B0B04",
"O  c #120E07",
"+  c #140C08",
"@  c #1B0F0A",
"#  c #021302",
"$  c #0A1507",
"%  c #001C00",
"&  c #051409",
"*  c #0F1B09",
"=  c #141007",
"-  c #1B120A",
";  c #101D0B",
":  c #121E11",
">  c #23150D",
",  c #2C170E",
"<  c #2D1B11",
"1  c #341D14",
"2  c #391F16",
"3  c #022300",
"4  c #062900",
"5  c #16250D",
"6  c #17280D",
"7  c #192A0F",
"8  c #132111",
"9  c #1B2B11",
"0  c #392016",
"q  c #3D2618",
"w  c #283C17",
"e  c #25351A",
"r  c #41271C",
"t  c #572D1A",
"y  c #4A3124",
"u  c #553F2D",
"i  c #7D3F25",
"p  c #2E451B",
"a  c #2F481B",
"s  c #314B1C",
"d  c #33501D",
"f  c #385421",
"g  c #3B5B25",
"h  c #58412F",
"j  c #405E25",
"k  c #5C473C",
"l  c #584938",
"z  c #774630",
"x  c #4E773D",
"c  c #5A7A3E",
"v  c #677A54",
"b  c #824127",
"n  c #88452A",
"m  c #8B4A2E",
"M  c #8F4E31",
"N  c #835836",
"B  c #8E5539",
"V  c #945234",
"C  c #9F5737",
"Z  c #9D5837",
"A  c #9A5939",
"S  c #A25939",
"D  c #A85E3C",
"F  c #A2613F",
"G  c #8F7351",
"H  c #AC6541",
"J  c #AE6D48",
"K  c #B56A46",
"L  c #B46D48",
"P  c #B4734C",
"I  c #BE7D55",
"U  c #6D8D4D",
"Y  c #72885C",
"T  c #749553",
"R  c #789855",
"E  c #A3835D",
"W  c #9C8867",
"Q  c #A4876D",
"!  c #B98F69",
"~  c #B1906B",
"^  c #BE9973",
"/  c #C38258",
"(  c #C88358",
")  c #CB8A5B",
"_  c #C68F63",
"`  c #D18D60",
"'  c #DB8E66",
"]  c #CB9265",
"[  c #C89A6E",
"{  c #D59364",
"}  c #D6916A",
"|  c #DC9A69",
" . c #CE9E72",
".. c #E09B70",
"X. c #D3A375",
"o. c #DDA574",
"O. c #DDA979",
"+. c #E5A572",
"@. c #E6A975",
"#. c #EBAD77",
"$. c #E7AD79",
"%. c #EDAE79",
"&. c #EFB07B",
"*. c #F4B37C",
"=. c #CEAF84",
"-. c #CCBA8F",
";. c #CCB295",
":. c #E9B481",
">. c #EDB98B",
",. c #E4BD9A",
"<. c #DBC293",
"1. c #DACB9D",
"2. c #F4C892",
"3. c #E8D8A6",
"4. c #F4DDA9",
"5. c #F4E0AC",
"6. c #F4E5B1",
/* pixels */
"X           %                                                 X             X X X       X X       X ",
"X                     3                                                           X   X             ",
"$                       X           X                     *       X           X       X     $ X     ",
"#                                             R                   7   X X     X     X     X X X X X ",
"X                                           X                 X $   X X         X X $       X X   9 ",
"X                                               X       X   $ $ X 5 9 9       X X   X $   5 f   X X ",
"X X                         4                           X X X 6.6.  X X 6.6.    X   $ X   X $   X X ",
"X X X g                             3       4   %       X   6.6.S 6.X 6.b b 6.    X X X 7   *       ",
"X X   X                           % %       3       X   X 6.b b S b 6.6.S b 6.      X X             ",
"X X X X                     6.6.6.6.6.6.              & X 6.b b S b 6.6.S b 6.6.  X X             X ",
"X X X                     6.b b b b b b 6.            w   6.b b b b b S S S b b 6.    X             ",
"X X X               X 6.b b b *.*.*.b b 6.6.          X   6.b b b b b S S S b b 6.6.              X ",
"X X   X             6.b b b *.*.*.*.b 6.6.                6.b b b b b G  .[ S S b 6.X               ",
"X X X           6.6.b b b b *.*.*.b b 6.6.    X         6.b b b b b ' ;.^ X.~ ~ b 6.6.    X         ",
"X               6.b b b *.*.*.*.b b b 6.        X       6.b b b b S ! ,., t *.*.b b 6.X X X X X X   ",
"$ X           6.b b b b *.*.*.*.b b 6.6.  $   X       6.6.b b b S K *.>., , *.*.*.b 6.6.X   X X X   ",
"X   X         6.b b b *.*.*.*.*.*.b b 6.              6.b b b b S K *.*.*.*.*.*.*.*.b > 6.      X   ",
"X       U     6.6.b b *.*.*.*.*.*.b b 6.            6.b b b b b D ..%.#.o.o. . .X.E b b 6.  $       ",
"X               6.b b *.*.*.*.*.b b 6.          6.6.6.b b b S S S %.*.*.*.*.k k l Q 6.6.X $ X   X X ",
"X   X           6.b b S | *.*.*.b b 6.        6.6.b b b b b S S H :.*.*.*.*.b b 6.6.  X   X   X $ X ",
"X X             6.6.b b | *.*.*.b b 6.6.6.6.6.6.6.b b b b b S S H :.*.*.*.*.b b 6.X       X X   X $ ",
":   X             6.b b b *.*.*.b b b b b b b b b b b b b S H H %.*.*.%.*.*.6.6.  *   $   X X   9 X ",
"X X X             6.b b b *.*.b b b b b b b b b b b b S S S %.%.*.o.@.%.*.*.6.            X X X X   ",
"X X X 9           6.6.M H S S b b b b b b b b b b b S S S ` *.*.*.*.*.@.$.*.6.          X X X $ X X ",
"X     X   X       6.*.J S b b b b S S S b b S S S S S S S | *.*.*.*.*.*.*.6.    X X X     o   $ 9 5 ",
"X X X X     #       6.b M b b b S S S S S S S S S S S S S ( &.&.*.*.*.&.O.6.    X X       X X       ",
"X X X X X           6.*.b b b H ) S S S S S S S S S S S S S { *.*.*.*.$.*.*.6.    X X X         9   ",
"X X X X X X       6.6.b b L L ) A S S S S S S S S S S S S S *.*.*.*.*.o.*.b 6.$ $ X       $ 7 w X * ",
"X X X X #         1.N i %.L L ) A S S S S S S S S S *.S S S *.*.*.*.*.o.*.b 6.X           X o $     ",
"X X X X # #       6.^ b I { Z V n +.H C C S S *.*.b } S S S +.*.*.P P P P ! 6.X   X     X X X X X o ",
"X X X X           6.6.b *.*.i 6.*.*.b b 6.5.5.4.F =.S V m b S b *.*.*.b A <.6.X       7 9 X *   5   ",
"X X X X           6.b *.*.*.b b *.*.b 6.b b b 6.3.z B ] ] @./ V V ] _ _ ] b 6.O X X         X   X   ",
"X X X X         6.b *.*.*.b 6.6.b b b 6.r y y u h 1.b b *.*.*.*.W 2.*.*.*.*.b 1 = o   9 $   o   X   ",
"X X X X X       6.b *.*.b b 2 2 b b b *.6.2 2 0 0 0 6.b *.*.*.*.-.*.6.b *.*.b 0 < X   X X X     c   ",
"X X X         6.b *.*.b 6.2 2 2 6.b b *.6.2 2 0 0 0 0 b b *.*.*.b 6.6.b b *.*.6.1 1 X $ X X         ",
"X X X       6.b *.*.b b 6.2 2 2 6.6.b b *.6.0 2 0 0 0 6.b b *.*.b 0 0 6.b b *.b 6.1 X   X 6         ",
"X X X     d 6.b b b 6.6.2 2 q q 2 6.b b *.*.6.2 0 0 0 2 6.b b *.*.b 0 6.b b b *.6.0 7 X f 5         ",
"$ X   X     6.b b *.6.2 2 2 2 2 2 6.6.b b *.*.2 0 2 0 0 0 6.b *.*.*.b 0 6.6.b 6.6.o X & j         $ ",
"X X         6.6.b b 1 2 2 2 2 2 2 2 6.6.b b *.6.0 0 0 0 0 0 6.b *.*.b 0 0 0 6.q X 5 ; X             ",
"8 3 # d         6.1 1 2 2 0 2 2 2 2 2 2 2 6.6.0 0 0 0 0 0 0 0 6.b *.*.6.0 0 0     X                 ",
"&     %     T     c 1 2 2 2 2 2 2 2 2 2 2 2 0 0 0 0 0 0 0 0 0 0 6.b b 6.2 2 .               5       ",
"X                   @ @ 2 2 2 2 2 1 2 2 2 q 0 0 0 0 0 0 0 q 0 0 0 6.6.> +                   e       ",
"Y w X   %         #       + 1 > < x 2 2 2 0 0 0 0 0 0 0 0 0 < < < - o                               ",
"X   X               a     # .       > 1 2 0 0 0 < 0 0 0 < > > O                                 % s ",
"v ; X                       %   #   #   + - o 1 < - > <                             5       a       ",
"X                                                 .                   a                             ",
"X                 #                                   #                                             ",
"X                           #   % p   %             U       X   X                           s       ",
"X X               #   s             # U       c     U         c #     %               s         T   ",
"X X                   R             p         U       T     s %                 s                   "
};
