/* XPM */
static char *e1700d569872499ad8ab830538283277kCAidaiXGBUJxxhO[] = {
/* columns rows colors chars-per-pixel */
"50 50 67 1 ",
"  c black",
". c #000700",
"X c #010703",
"o c #020B03",
"O c #010D02",
"+ c #030B04",
"@ c #030D05",
"# c #040C05",
"$ c #050F06",
"% c #001100",
"& c #041002",
"* c #001700",
"= c #041006",
"- c #061604",
"; c #081107",
": c #021900",
"> c #001D00",
", c #071C00",
"< c #071905",
"1 c #081C00",
"2 c #081F00",
"3 c #081805",
"4 c #071208",
"5 c #071409",
"6 c #0A1208",
"7 c #0A140A",
"8 c #0C1609",
"9 c #101B0D",
"0 c #121E0E",
"q c #131E0F",
"w c #052200",
"e c #072500",
"r c #0B2201",
"t c #0B2902",
"y c #0D2B04",
"u c #0E2C04",
"i c #132F05",
"p c #15230E",
"a c #142012",
"s c #162610",
"d c #192710",
"f c #192910",
"g c #1B2E13",
"h c #1D2D13",
"j c #26371C",
"k c #2A3D1A",
"l c #2D3E21",
"z c #2F491C",
"x c #314A1D",
"c c #324D1F",
"v c #354D1F",
"b c #2E4121",
"n c #345222",
"m c #3B5524",
"M c #3B5926",
"N c #3E5C28",
"B c #425F28",
"V c #44632A",
"C c #5B7A40",
"Z c #5C7C40",
"A c #677B54",
"S c #618244",
"D c #6D8F4D",
"F c #73895D",
"G c #769553",
"H c #779755",
"J c #799855",
/* pixels */
"=     >                       .$o.....$++++o++...$",
"$          w                ..oooooo.+++++o+.oo...",
"7           %     %       ...9...+.o...+...++o8+..",
"5                      J ....o.oof+$o..+..$oooo+o+",
"$                   . % .  .oo.$8o$++o..oo8o+o$++h",
"@                       O  .&+8;$dhh+.++o.+8odmo$+",
"@+            t        .oo..$$+++.$+.+o.$.8++$8o++",
"@@@N              r   y ,...+o+.++++++$+.+++f.qo++",
"@+o+             2r  .w.++o.+...++$++...o+$+....++",
"o@@@            .  i ...++.7o;o++h+o+.ooo+++..o.+$",
"@@@           w  r .. ...o.koo+oh$+o+oo.+.++ +...+",
"@@@       %     .  ++..+oo.oooooh++++o$o+.+.....o+",
"@@o+       .    G  .+o....o+.o...+++.f++o.+.+++...",
"$@@              w.o++++...+o.$;=o+do$++.o..ooo+..",
"@ooo             . .++..oo++...+oooooo+77$.++oo+o.",
"4@oo               ..6.O...++o.+...ooo+8h++++oo+o.",
"@o+o             .s.....++......o.+o.++$$$o$o...$+",
"@o  D               o. ...o+......oo++oV8o+.$+8.+o",
"@ooo    %      ..o......++++++...$++oo+.$++o$8$o++",
"$ +           nooo.o..++.+.++++..+.++++8$$o+.$o$8+",
"@+ o         O...o....++....++++o++.o+o+++oo++$o$8",
"a.+  .        . +o2... +@o...+++o+.++.+..q+7+o+.h$",
"=@+o     .     .o.... ..q+.... .......++.o..++$+$o",
"@@@goo        .  .....    ...o.$.o;+$.+..o+o+++8++",
"@oo+o+          .o..... .  . oo....++o+o+oo.o;o8hd",
"$@@@  *          .         . ..J+.....++oo+.o++o o",
"@@@@@                      ....+++++.o++.o++oo+.ho",
"@@@@@+      y            *....++++++.o+88+ooo8fk+q",
"@@@@*o    M              3. o.o+..o+$o$oo+o..$;7..",
"@@@@<*             .      +....o.o.+.+.$.$+oo+++$;",
"@@@@o                S>   .+.+....o+++ooo++fhoqod.",
"@@@@o                   -  ++......o+o+.+$+..o+o+o",
"@@$@                   *.o.o........oo$+++oh8.;.$o",
"@@@=%                  ... oo+......++o++$o+$$o.Zo",
"@@@o   .               ...o.++++++++.o$$+.+8++...o",
"$@@o              u   . ....++++++++.+.++$+o$fo...",
"@@@o n        rr    . . ..+ ooo+++.o..qd8$f+ms+.. ",
"6@ @                    . ++..o.++....67q6+7B.o..6",
"$@o                >   .+o++...l+...+++d+dq+o. .. ",
"ae%n.   * .  *        .o.+++o....o o...+.+.oo ... ",
"7oo,  G. D            oo++++........oo..o.... p.  ",
"$oo         .        ,.o++++.9......o... o....j . ",
"Fb+ 2    *       G   ..o..++..oooo+... .... .+. . ",
"= +       x  *       .oo..++..ooooo.    ...o.+. 2v",
"Aq@o          , * *  .+....ooooo.+.+.   .op o x   ",
"@o                    . .... oo.o+.x      o       ",
"@        *              .. %. .o...      .       .",
"$o            * ,x ,      D  .& o             c   ",
"@+       * c      *D   C  D    C*  :       c    G ",
"$@         H      z    D   G  c,        c        ."
};
