/* XPM */
static char *d4f356c7a8524014a0c6dff75212fe7bW6gFSjmmOlfjQM3L[] = {
/* columns rows colors chars-per-pixel */
"50 50 33 1 ",
"  c #000100",
". c #010401",
"X c #020803",
"o c #040802",
"O c #000C00",
"+ c #030B04",
"@ c #050904",
"# c #030D05",
"$ c #060E06",
"% c #080A05",
"& c #041001",
"* c #031400",
"= c #0A1006",
"- c #041C00",
"; c #0C1208",
": c #0A1509",
"> c #0C1609",
", c #12170C",
"< c #13180E",
"1 c #121D0C",
"2 c #041A14",
"3 c #052100",
"4 c #0D2B04",
"5 c #192510",
"6 c #382D08",
"7 c #25321A",
"8 c #1C3E24",
"9 c #303D22",
"0 c #3B5524",
"q c #44622C",
"w c #7D6720",
"e c #799855",
"r c #7C9264",
/* pixels */
"  <   O                          e    9          $",
"    e                   888                       ",
"               4       88qq .                 ..% ",
"       9              8888qqr       .     $ X. .X.",
"                      88qqqqr            .. +X  X;",
"                      88q8qqrr.         X  @  0X  ",
"              &     8888r8qqqr        X    ....X .",
"###5                8888r8qqqr       .   ..   1   ",
"# X+    e        . e8888r8qrqqr +.        . X     ",
"....             8888q8888qrqqqqrr ..<         X $",
"# .           .  888qqr888qqqr8qqq X.X     X   X  ",
"..#      4      88qqqqq88qqqrr88qqrr..  .  .      ",
".#X+     e .    88qqqqqqqqqqqqrr888r =X XX+X      ",
"  .            8888888qqqqq8qqqrrr8rX .        .  ",
"# XX         88888qqqqqqqq88qqqrrr888.+:          ",
"..X          8888qqqqqqqq888qqqqqqqq8X > .      XX",
" X+X         88qqqqqqqqqq88888qqqqqq888r          ",
".X  ,      8888qqqqqqqqqq88888qqqqqqqqqr        . ",
" X         8888qqqqqqqqqq88888qqqqqqqqqr .        ",
".         888rrqqqqqqqqqq88888qqqqqqqqqr          ",
"#  X      8q8rrqqqqqqqqq8q888888qqqqqqq.r.        ",
"         8qq8qqqqqqqqqqq88888888qqqq8qqrrr.@  .  $",
"     888qqq8qrr8qqqqqqqqqrr8888888qqqqqq8rXX  $ . ",
"     88888qq8888qqqqqqqqqrr8888888qqqqq88qrX...> .",
"       888q8qqqqqqqqqq8qqqqqqq8888qqqqqq8qrXX= @;=",
" e X  X 888qqqqqqqqqq88qqqqqqq8888qqqqqqqq8       ",
" # #+     8qqqqqqqqq888qqqqqqq88qqqqq88qq888  .   ",
"+X+XX#+  88qqqqqqqqq888r88qqqqqqqqqqq88qq888     1",
"#####+X  88qqqqqqqqq888r88qqqqqqqqqqq88qq888     .",
"X+##X##X qrrrqqqqqqq888r88qqqqqqqqqqq88qrq888   . ",
"XX#XX#X8qqrrrrrqqqqqq88rr88qqqqqqqqqq88rrqr88     ",
"X###X# 8qq8qrrrqqqqqqq8r888qqqqqqqqqq88rrr888     ",
"###X#8888qqqrrrqqqqqqq8q888qqqqqqqqqq888rrr88     ",
"  X# 8888qqqrrrqq888qqq88888qqqqqqqqqqq8qqq8.   7 ",
".# X 8888qqqqrrqqqqqqq888888qqqqqqqqqqq8q888      ",
"&.      88qq8qqqqqqqqqqq88qqqqqqqqqqqqqqq88       ",
"4    .   888888qqqqqqqq8886qqqqqqqqq8qqq88 9      ",
" .       88888822qqqqqq8866qqqqqqq888qqq88        ",
" #      % 8888862qqqqqqq6666qqqqqq88q             ",
".O      . 8888862qqqqqqq6666qqqqqq88q             ",
"         .   8866622qqqq6666qqq8888*     <        ",
"                 6666qq662666qq*****              ",
"                 %  66666666666****           e   ",
"          X++#+X     666666*****    *.            ",
"XX& e     X## X X    *ww6666** . X ..            .",
" X++X    # #+++XX XX**ww6666**.  .  .           O ",
"##X+     +# ##+XXXX-**6w6666**   4             3.3",
"+ +# # e # X+ +#.& O**6w6666**   .  .    .    .  .",
"+XX##.O  X++X X+ -Oo**6666666*X    O      . O   .O",
"XX  X#   X. X+X. .  ****666***       .  .   e O3*."
};
